<?xml version="1.0" encoding="UTF-8" standalone="no"?>
<svg
   width="167"
   height="350"
   viewBox="0 0 167 350.00001"
   version="1.1"
   id="svg94"
   sodipodi:docname="cara_penggunaan2.svg"
   inkscape:version="1.1 (c68e22c387, 2021-05-23)"
   xmlns:inkscape="http://www.inkscape.org/namespaces/inkscape"
   xmlns:sodipodi="http://sodipodi.sourceforge.net/DTD/sodipodi-0.dtd"
   xmlns="http://www.w3.org/2000/svg"
   xmlns:svg="http://www.w3.org/2000/svg">
  <sodipodi:namedview
     id="namedview96"
     pagecolor="#505050"
     bordercolor="#eeeeee"
     borderopacity="1"
     inkscape:pageshadow="0"
     inkscape:pageopacity="0"
     inkscape:pagecheckerboard="0"
     showgrid="false"
     height="330px"
     inkscape:zoom="1.6164521"
     inkscape:cx="-10.51686"
     inkscape:cy="103.622"
     inkscape:window-width="1920"
     inkscape:window-height="986"
     inkscape:window-x="-11"
     inkscape:window-y="-11"
     inkscape:window-maximized="1"
     inkscape:current-layer="svg94"
     width="167px" />
  <defs
     id="defs7">
    <linearGradient
       id="linear-gradient"
       x1="220.87447"
       y1="191.24197"
       x2="219.92499"
       y2="190.35957"
       gradientUnits="userSpaceOnUse"
       gradientTransform="scale(0.95848696,1.043311)">
      <stop
         offset="0"
         stop-color="#fff"
         id="stop2" />
      <stop
         offset="1"
         stop-color="#fff"
         stop-opacity="0"
         id="stop4" />
    </linearGradient>
  </defs>
  <g
     id="File"
     transform="matrix(0.80379317,0,0,0.80379317,1.1586878,109.86893)">
    <path
       id="path4"
       d="m 25.66,10.236 a 2.282,2.282 0 0 0 -2.285,2.3 V 50.1 a 2.282,2.282 0 0 0 2.285,2.3 H 46.654 A 8.764,8.764 0 0 1 55.836,38.459 V 21.872 h -8.4 a 3.084,3.084 0 0 1 -3.221,-2.921 v -8.715 z m 20.15,0 v 8.714 a 1.48,1.48 0 0 0 1.623,1.323 h 8.4 z"
       transform="translate(-14.671,-5.455)"
       fill="#95b0c9" />
    <rect
       id="rect2"
       width="51"
       height="53"
       transform="translate(0.133,-0.373)"
       opacity="0"
       x="0"
       y="0" />
    <rect
       id="rect6"
       width="15.192"
       height="2.471"
       rx="1.2359999"
       transform="translate(13.012,15.233)"
       fill="#4d4d4d"
       x="0"
       y="0" />
    <rect
       id="rect8"
       width="23.844999"
       height="2.471"
       rx="1.2359999"
       transform="translate(13.012,26.751)"
       fill="#4d4d4d"
       x="0"
       y="0" />
    <rect
       id="rect10"
       width="15.192"
       height="2.471"
       rx="1.2359999"
       transform="translate(13.012,20.992)"
       fill="#4d4d4d"
       x="0"
       y="0" />
    <path
       id="rect12"
       d="m 34.862,79.641 a 0.7,0.7 0 0 0 -0.706,0.706 v 1.059 a 0.7,0.7 0 0 0 0.706,0.706 H 54.03 a 8.765,8.765 0 0 1 3.9,-2.067 0.7,0.7 0 0 0 -0.636,-0.4 z"
       transform="translate(-21.145,-47.131)"
       fill="#4d4d4d" />
    <path
       id="rect14"
       d="m 34.862,94.055 a 0.7,0.7 0 0 0 -0.706,0.706 v 1.059 a 0.7,0.7 0 0 0 0.706,0.706 h 16.353 a 8.765,8.765 0 0 1 0.567,-2.471 z"
       transform="translate(-21.145,-55.787)"
       fill="#4d4d4d" />
    <circle
       id="path851"
       cx="8.7650003"
       cy="8.7650003"
       r="8.7650003"
       transform="translate(30.042,32.677)"
       fill="none"
       stroke="#95b0c9"
       stroke-linecap="round"
       stroke-width="3" />
    <path
       id="path888"
       d="m 96.822,97.092 -3.94,-1.106 -0.371,-2.19 -0.417,2.175 -3.953,1.044 L 92.61,86.2 Z"
       transform="translate(-53.562,-51.071)"
       fill="#95b0c9" />
  </g>
  <g
     id="Group_6"
     data-name="Group 6"
     transform="matrix(0.80379317,0,0,0.80379317,5.5755311,188.34085)">
    <path
       id="path2"
       d="m 146.775,141.047 a 20.369,20.369 0 1 0 20.368,20.368 20.369,20.369 0 0 0 -20.368,-20.368 z m 0,0.984 a 0.724,0.724 0 0 1 0.726,0.726 v 1.933 0 a 2.259,2.259 0 0 1 1.213,2.14 v 12.1 c 0,0.1 -0.005,0.189 -0.014,0.281 a 2.9,2.9 0 0 1 0.949,1.378 l 8.093,4.672 a 1.777,1.777 0 1 1 -1.752,3.035 l -7.56,-4.364 a 2.9,2.9 0 0 1 -3.215,-4.823 c 0,-0.059 -0.006,-0.119 -0.006,-0.179 v -12.1 a 2.4,2.4 0 0 1 0.9,-1.97 l -0.06,0.044 v -2.147 a 0.724,0.724 0 0 1 0.726,-0.726 z m -0.269,2.624 -0.063,0.023 z m -0.073,0.027 c -0.027,0.01 -0.053,0.022 -0.079,0.034 z m -0.079,0.034 q -0.04,0.019 -0.08,0.04 z m -0.08,0.04 c -0.025,0.014 -0.051,0.028 -0.076,0.044 0.025,-0.015 0.05,-0.03 0.076,-0.044 z m -0.082,0.048 -0.07,0.046 z M 128.5,160.69 h 3.647 a 0.726,0.726 0 0 1 0,1.451 H 128.5 a 0.726,0.726 0 0 1 0,-1.451 z m 33.023,0 h 3.647 a 0.726,0.726 0 0 1 0,1.451 h -3.647 a 0.726,0.726 0 0 1 0,-1.451 z m -14.75,14.57 a 0.724,0.724 0 0 1 0.726,0.726 v 3.647 a 0.726,0.726 0 0 1 -1.451,0 v -3.647 a 0.724,0.724 0 0 1 0.727,-0.726 z"
       transform="translate(-126.406,-141.047)"
       fill="#95b0c9" />
    <g
       id="hourglass"
       transform="translate(29.89,17.652)">
      <path
         id="path928"
         d="m 104.325,87.226 a 5.275,5.275 0 0 0 -0.163,4.88 c 1.186,2.987 5.018,4.252 5.01,6.018 -0.008,1.766 -3.939,3.517 -4.977,6.376 -1.038,2.859 -0.26,4.2 -0.26,4.2 l 11.516,0.2 a 6.193,6.193 0 0 0 -0.618,-5.563 c -1.84,-2.666 -4.42,-3.681 -4.424,-5.3 -0.004,-1.619 4.994,-3.684 5.368,-7.287 0.374,-3.603 -1.107,-3.65 -1.107,-3.65 z"
         transform="translate(-102.4,-84.266)"
         fill="#ffffff"
         stroke="#4d4d4d"
         stroke-width="1" />
      <path
         id="path936"
         d="M 104.609,60.936 H 115.9 a 0.414,0.414 0 0 1 0.414,0.414 v 1.08 a 0.414,0.414 0 0 1 -0.414,0.414 h -11.291 a 0.414,0.414 0 0 1 -0.414,-0.414 v -1.08 a 0.414,0.414 0 0 1 0.414,-0.414"
         transform="translate(-102.905,-59.808)"
         fill="#4d4d4d"
         opacity="0.99" />
      <path
         id="path938"
         d="m 85.85,43.6 h 13.325 a 0.494,0.494 0 0 1 0.494,0.494 v 1.289 a 0.494,0.494 0 0 1 -0.494,0.494 H 85.85 A 0.494,0.494 0 0 1 85.356,45.383 V 44.09 a 0.494,0.494 0 0 1 0.494,-0.494"
         transform="translate(-85.291,-43.596)"
         fill="#4d4d4d"
         opacity="0.99" />
      <path
         id="path940"
         d="m 103.551,355.3 c 0.316,-0.046 12.021,0.035 12.021,0.035 a 6.321,6.321 0 0 0 0.109,-1.175 c 0,0 -4.769,-2.51 -6.1,-2.5 -1.358,0.013 -6.05,2.323 -6.05,2.323 a 3.423,3.423 0 0 0 0.015,1.315 z"
         transform="translate(-102.24,-331.619)"
         fill="#95b0c9" />
      <path
         id="path942"
         d="m 102.134,406.706 h 11.655 a 0.413,0.413 0 0 1 0.413,0.414 v 1.08 a 0.413,0.413 0 0 1 -0.413,0.413 h -11.655 a 0.413,0.413 0 0 1 -0.413,-0.413 v -1.08 a 0.413,0.413 0 0 1 0.413,-0.414"
         transform="translate(-100.592,-383.081)"
         fill="#4d4d4d"
         opacity="0.99" />
      <path
         id="path944"
         d="m 84.864,415.356 h 13.48 a 0.494,0.494 0 0 1 0.494,0.494 v 1.288 a 0.494,0.494 0 0 1 -0.494,0.494 h -13.48 a 0.494,0.494 0 0 1 -0.494,-0.494 v -1.288 a 0.494,0.494 0 0 1 0.494,-0.494"
         transform="translate(-84.37,-391.169)"
         fill="#4d4d4d"
         opacity="0.99" />
      <path
         id="path946"
         d="m 113.531,152.611 c 1.827,-0.76 11.2,-0.539 11.118,0.268 -0.325,0.894 -0.544,1.467 -5.053,5.412 l -0.471,0.58 -0.012,6.383 -0.16,-0.009 0.006,-6.37 -0.506,-0.605 c -1.343,-1.9 -5.262,-4.3 -4.923,-5.659 z"
         transform="translate(-111.614,-145.081)"
         fill="#95b0c9" />
      <path
         id="path960"
         d="m 213.748,160.386 c -0.678,2.067 -2.2,3.245 -4.946,5.383 0,0 1.753,-1.883 2.576,-2.714 2.141,-2.164 1.887,-2.692 2.37,-2.669 z"
         transform="translate(-200.706,-152.787)"
         fill="url(#linear-gradient)"
         style="fill:url(#linear-gradient)" />
    </g>
  </g>
  <text
     id="Menunggu_konfirmasi"
     data-name="Menunggu konfirmasi"
     fill="#707070"
     font-size="9.64552px"
     font-family="Montserrat-Medium, Montserrat"
     font-weight="500"
     x="50.296974"
     y="203.30505"
     style="stroke-width:0.803793"><tspan
       sodipodi:role="line"
       id="tspan8671"
       x="50.296974"
       y="203.30505"
       style="stroke-width:0.803793">Permohonan</tspan><tspan
       sodipodi:role="line"
       id="tspan8673"
       x="50.296974"
       y="215.36195"
       style="stroke-width:0.803793">rekomendasi</tspan><tspan
       sodipodi:role="line"
       x="50.296974"
       y="227.41885"
       id="tspan8675"
       style="stroke-width:0.803793">ke KEMENPAN</tspan></text>
  <text
     id="Upload_file_yang_dibutuhkan"
     data-name="Upload file yang dibutuhkan"
     fill="#707070"
     font-size="9.64552px"
     font-family="Montserrat-Medium, Montserrat"
     font-weight="500"
     x="50.296974"
     y="128.86015"
     style="stroke-width:0.803793"><tspan
       sodipodi:role="line"
       id="tspan10219"
       x="50.296974"
       y="128.86015"
       style="stroke-width:0.803793">Verifikasi berkas</tspan><tspan
       sodipodi:role="line"
       id="tspan10221"
       x="50.296974"
       y="140.91705"
       style="stroke-width:0.803793">permohonan</tspan></text>
  <text
     id="Mengajukan_judul"
     data-name="Mengajukan judul"
     fill="#707070"
     font-size="9.64552px"
     font-family="Montserrat-Medium, Montserrat"
     font-weight="500"
     x="42.896019"
     y="49.349434"
     style="stroke-width:0.803793"><tspan
       sodipodi:role="line"
       id="tspan1221"
       x="42.896019"
       y="49.349434"
       style="stroke-width:0.803793">Penerbitan rekomendasi</tspan><tspan
       sodipodi:role="line"
       id="tspan1223"
       x="42.896019"
       y="61.406334"
       style="stroke-width:0.803793">pembangunan aplikasi</tspan><tspan
       sodipodi:role="line"
       x="42.896019"
       y="73.463234"
       id="tspan1225"
       style="stroke-width:0.803793">ke DISKOMINFO</tspan></text>
  <g
     id="g10"
     transform="matrix(0.80379317,0,0,0.80379317,6.644576,40.442901)">
    <path
       id="path28"
       d="m 271.582,-422.2 h -23.619 v 40.121 H 281.4 v -28.434 z"
       transform="translate(-247.963,422.2)"
       fill="#95b0c9" />
    <g
       id="Group_7"
       data-name="Group 7"
       transform="translate(25.508,25.162)">
      <path
         id="path32"
         d="m 342.483,-285.957 -1.732,-1.732 a 0.456,0.456 0 0 1 0,-0.643 l 6.771,-6.771 2.375,2.375 -6.771,6.771 a 0.456,0.456 0 0 1 -0.643,0"
         transform="translate(-339.347,297.084)"
         fill="#4d4d4d" />
      <path
         id="path36"
         d="m 332.9,420.425 -0.779,2.906 -0.409,0.409 a 0.17536248,0.17536248 0 0 0 0.248,0.248 l 0.409,-0.409 2.905,-0.779 z"
         transform="translate(-331.659,-411.507)"
         fill="#4d4d4d" />
      <path
         id="path40"
         d="m 391.624,-304.706 -2.375,-2.375 1.706,-1.706 a 0.949,0.949 0 0 1 1.338,0 l 1.037,1.036 a 0.949,0.949 0 0 1 0,1.338 z"
         transform="translate(-381.075,309.062)"
         fill="#4d4d4d" />
    </g>
    <path
       id="path64"
       d="m 354.165,-422.2 v 11.778 h 9.815 v -0.091 z"
       transform="translate(-330.546,422.2)"
       fill="#66829b" />
    <path
       id="path68"
       d="m 280.8,-388.344 h -12.823 a 0.458,0.458 0 0 1 -0.458,-0.458 0.458,0.458 0 0 1 0.458,-0.458 H 280.8 a 0.458,0.458 0 0 1 0.458,0.458 0.458,0.458 0 0 1 -0.458,0.458"
       transform="translate(-263.17,396.586)"
       fill="#4d4d4d" />
    <path
       id="path72"
       d="m 289.506,-352.916 h -21.53 a 0.458,0.458 0 0 1 -0.458,-0.458 0.458,0.458 0 0 1 0.458,-0.458 h 21.53 a 0.458,0.458 0 0 1 0.458,0.458 0.458,0.458 0 0 1 -0.458,0.458"
       transform="translate(-263.169,369.037)"
       fill="#4d4d4d" />
    <path
       id="path76"
       d="m 289.506,-317.49 h -21.53 a 0.458,0.458 0 0 1 -0.458,-0.458 0.458,0.458 0 0 1 0.458,-0.458 h 21.53 a 0.458,0.458 0 0 1 0.458,0.458 0.458,0.458 0 0 1 -0.458,0.458"
       transform="translate(-263.169,341.489)"
       fill="#4d4d4d" />
    <path
       id="path80"
       d="m 289.506,-282.062 h -21.53 a 0.458,0.458 0 0 1 -0.458,-0.458 0.458,0.458 0 0 1 0.458,-0.458 h 21.53 a 0.458,0.458 0 0 1 0.458,0.458 0.458,0.458 0 0 1 -0.458,0.458"
       transform="translate(-263.169,313.941)"
       fill="#4d4d4d" />
  </g>
  <text
     id="Mengerjakan_judul"
     data-name="Mengerjakan judul"
     fill="#707070"
     font-size="9.64552px"
     font-family="Montserrat-Medium, Montserrat"
     font-weight="500"
     x="51.100773"
     y="280.77704"
     style="stroke-width:0.803793"><tspan
       sodipodi:role="line"
       id="tspan7029"
       x="51.100773"
       y="280.77704"
       style="stroke-width:0.803793">Prosespem bangunan</tspan><tspan
       sodipodi:role="line"
       id="tspan7031"
       x="51.100773"
       y="292.83395"
       style="stroke-width:0.803793">aplikasi</tspan></text>
  <g
     id="kerja"
     transform="matrix(0.80379317,0,0,0.80379317,4.2999119,260.68223)">
    <g
       id="g1093">
      <path
         id="path963"
         d="m 852.148,69.466 a 0.751,0.751 0 0 0 -0.847,0.609 l -0.474,2.169 a 6.8,6.8 0 0 0 -2.721,0.61 l -1.423,-1.7 a 0.736,0.736 0 0 0 -1.03,-0.168 l -1.853,1.336 a 0.736,0.736 0 0 0 -0.168,1.03 l 1.159,1.9 a 6.8,6.8 0 0 0 -1.456,2.377 l -2.2,-0.241 a 0.751,0.751 0 0 0 -0.847,0.609 l -0.368,2.25 a 0.751,0.751 0 0 0 0.609,0.847 l 2.169,0.474 a 6.8,6.8 0 0 0 0.61,2.721 l -1.7,1.423 a 0.736,0.736 0 0 0 -0.169,1.03 l 1.331,1.852 a 0.757,0.757 0 0 0 1.03,0.168 l 1.9,-1.159 a 6.8,6.8 0 0 0 2.377,1.456 l -0.241,2.2 a 0.751,0.751 0 0 0 0.609,0.847 l 2.25,0.368 a 0.751,0.751 0 0 0 0.847,-0.609 l 0.474,-2.169 a 6.8,6.8 0 0 0 2.721,-0.61 l 1.422,1.7 a 0.736,0.736 0 0 0 1.03,0.168 l 1.852,-1.331 a 0.736,0.736 0 0 0 0.168,-1.03 l -1.159,-1.9 a 6.8,6.8 0 0 0 1.456,-2.377 l 2.2,0.241 a 0.751,0.751 0 0 0 0.847,-0.609 l 0.368,-2.25 a 0.751,0.751 0 0 0 -0.609,-0.847 l -2.169,-0.474 a 6.807,6.807 0 0 0 -0.61,-2.721 l 1.7,-1.422 a 0.736,0.736 0 0 0 0.168,-1.03 l -1.331,-1.852 a 0.736,0.736 0 0 0 -1.03,-0.168 l -1.9,1.159 a 6.8,6.8 0 0 0 -2.377,-1.456 l 0.241,-2.2 a 0.751,0.751 0 0 0 -0.609,-0.847 z m 0.22,5.719 a 5.86,5.86 0 1 1 -6.729,4.837 5.86,5.86 0 0 1 6.729,-4.837 z"
         transform="translate(-835.296,-36.212)"
         fill="#95b0c9" />
      <path
         id="path969"
         d="m 939.884,-37.691 a 0.633,0.633 0 0 0 -0.533,0.7 l 0.153,1.867 a 5.74,5.74 0 0 0 -2.045,1.164 l -1.566,-1.016 a 0.621,0.621 0 0 0 -0.872,0.118 l -1.165,1.531 a 0.621,0.621 0 0 0 0.118,0.872 l 1.4,1.244 a 5.736,5.736 0 0 0 -0.588,2.277 l -1.836,0.349 a 0.633,0.633 0 0 0 -0.533,0.7 l 0.258,1.906 a 0.633,0.633 0 0 0 0.7,0.533 l 1.867,-0.153 a 5.737,5.737 0 0 0 1.164,2.045 l -1.017,1.566 a 0.621,0.621 0 0 0 0.118,0.872 l 1.531,1.165 a 0.639,0.639 0 0 0 0.872,-0.118 l 1.244,-1.4 a 5.738,5.738 0 0 0 2.277,0.588 l 0.349,1.836 a 0.633,0.633 0 0 0 0.7,0.533 l 1.907,-0.259 a 0.633,0.633 0 0 0 0.533,-0.7 l -0.154,-1.867 a 5.738,5.738 0 0 0 2.045,-1.164 l 1.566,1.016 a 0.621,0.621 0 0 0 0.872,-0.118 l 1.165,-1.531 a 0.621,0.621 0 0 0 -0.118,-0.872 l -1.4,-1.244 a 5.739,5.739 0 0 0 0.588,-2.277 l 1.836,-0.349 a 0.633,0.633 0 0 0 0.533,-0.7 l -0.259,-1.906 a 0.633,0.633 0 0 0 -0.7,-0.533 l -1.867,0.153 a 5.739,5.739 0 0 0 -1.164,-2.045 l 1.016,-1.566 a 0.621,0.621 0 0 0 -0.118,-0.872 l -1.531,-1.165 a 0.621,0.621 0 0 0 -0.872,0.118 l -1.244,1.4 a 5.739,5.739 0 0 0 -2.277,-0.588 l -0.349,-1.836 a 0.633,0.633 0 0 0 -0.7,-0.533 z m 1.589,4.56 a 4.944,4.944 0 0 1 5.564,4.235 4.944,4.944 0 0 1 -4.235,5.564 4.944,4.944 0 0 1 -5.564,-4.235 4.944,4.944 0 0 1 4.236,-5.564 z"
         transform="translate(-914.743,56.037)"
         fill="#95b0c9" />
      <path
         id="path975"
         d="m 848.784,-59.136 a 0.482,0.482 0 0 0 -0.641,0.194 l -0.738,1.218 a 4.364,4.364 0 0 0 -1.778,-0.195 l -0.512,-1.324 a 0.472,0.472 0 0 0 -0.59,-0.316 l -1.4,0.423 a 0.473,0.473 0 0 0 -0.316,0.59 l 0.31,1.392 a 4.362,4.362 0 0 0 -1.377,1.14 l -1.287,-0.6 a 0.482,0.482 0 0 0 -0.641,0.194 l -0.691,1.29 a 0.482,0.482 0 0 0 0.194,0.641 l 1.218,0.738 a 4.364,4.364 0 0 0 -0.195,1.778 l -1.324,0.512 a 0.472,0.472 0 0 0 -0.316,0.59 l 0.424,1.4 a 0.486,0.486 0 0 0 0.59,0.316 l 1.391,-0.31 a 4.365,4.365 0 0 0 1.141,1.377 l -0.6,1.287 a 0.481,0.481 0 0 0 0.194,0.641 l 1.289,0.691 a 0.482,0.482 0 0 0 0.641,-0.194 l 0.738,-1.218 a 4.364,4.364 0 0 0 1.778,0.195 l 0.512,1.324 a 0.472,0.472 0 0 0 0.59,0.316 l 1.4,-0.424 a 0.472,0.472 0 0 0 0.316,-0.59 l -0.31,-1.392 a 4.363,4.363 0 0 0 1.377,-1.141 l 1.287,0.6 a 0.482,0.482 0 0 0 0.641,-0.194 l 0.691,-1.29 a 0.482,0.482 0 0 0 -0.194,-0.641 l -1.219,-0.738 a 4.367,4.367 0 0 0 0.195,-1.778 l 1.324,-0.512 a 0.472,0.472 0 0 0 0.316,-0.59 l -0.424,-1.4 a 0.472,0.472 0 0 0 -0.59,-0.316 l -1.392,0.31 a 4.364,4.364 0 0 0 -1.14,-1.377 l 0.6,-1.287 a 0.482,0.482 0 0 0 -0.194,-0.641 z m -1.054,3.517 a 3.76,3.76 0 0 1 1.539,5.089 3.76,3.76 0 0 1 -5.089,1.539 3.76,3.76 0 0 1 -1.539,-5.089 3.76,3.76 0 0 1 5.089,-1.539 z"
         transform="translate(-834.241,74.608)"
         fill="#95b0c9" />
      <g
         id="g993"
         transform="matrix(0.926,0.378,-0.378,0.926,24.691,0)">
        <path
           id="path987"
           d="m 0.645,0 a 1.522,1.522 0 0 0 0.289,2.648 v 7.078 a 1.522,1.522 0 0 0 -0.289,2.648 v -1.043 l 0.9,-0.677 0.9,0.677 v 1.016 A 1.523,1.523 0 0 0 2.12,9.724 V 2.649 A 1.523,1.523 0 0 0 2.441,0.026 v 1.016 l -0.9,0.677 -0.9,-0.677 z"
           transform="translate(0,2.03)"
           fill="#95b0c9" />
        <path
           id="path989"
           d="M 0.637,0 0,0.368 V 1.1 L 0.637,1.468 1.275,1.1 V 0.368 Z m 0,0.494 A 0.242,0.242 0 1 1 0.4,0.736 0.242,0.242 0 0 1 0.637,0.494 Z"
           transform="translate(1.062,1.894)"
           fill="#95b0c9" />
        <path
           id="path991"
           d="M 0.859,0 0,0.5 v 0.992 l 0.859,0.5 0.859,-0.5 V 0.5 Z m 0,0.666 A 0.326,0.326 0 1 1 0.534,0.992 0.326,0.326 0 0 1 0.859,0.666 Z"
           transform="translate(2.423)"
           fill="#95b0c9" />
      </g>
      <path
         id="path1069"
         d="m 1066.085,108.44 a 1.522,1.522 0 0 1 0.734,2.56 l 2.678,6.552 a 1.522,1.522 0 0 1 1.27,2.341 l -0.394,-0.965 -1.087,-0.287 -0.575,0.966 0.385,0.941 A 1.523,1.523 0 0 1 1068.4,118 l -2.677,-6.549 a 1.523,1.523 0 0 1 -1.293,-2.305 l 0.384,0.941 1.087,0.287 0.575,-0.966 z"
         transform="translate(-1027.939,-69.692)"
         fill="#95b0c9" />
      <path
         id="path1071"
         d="m 1067.427,110.374 0.729,0.1 0.278,0.681 -0.451,0.582 -0.729,-0.1 -0.278,-0.681 z m 0.187,0.458 a 0.242,0.242 0 1 0 0.315,0.132 0.241,0.241 0 0 0 -0.314,-0.132 z"
         transform="translate(-1030.309,-71.353)"
         fill="#95b0c9" />
      <path
         id="path1073"
         d="m 818.3,182.355 0.983,0.134 0.375,0.919 -0.608,0.784 -0.983,-0.134 -0.375,-0.918 z m 0.252,0.617 a 0.326,0.326 0 1 0 0.425,0.178 0.326,0.326 0 0 0 -0.424,-0.178 z"
         transform="translate(-816.217,-133.172)"
         fill="#95b0c9" />
      <path
         id="path1080"
         d="m 807.841,44.907 0.983,0.134 0.375,0.918 -0.608,0.784 -0.983,-0.134 -0.375,-0.918 z m 0.252,0.617 a 0.326,0.326 0 1 0 0.425,0.178 0.326,0.326 0 0 0 -0.424,-0.178 z"
         transform="translate(-807.234,-15.127)"
         fill="#95b0c9" />
    </g>
  </g>
  <g
     id="Garis"
     transform="matrix(0.80379317,0,0,0.80379317,-18.829237,-383.95988)">
    <line
       id="Line_2"
       data-name="Line 2"
       y2="30"
       transform="translate(51.5,575.5)"
       fill="none"
       stroke="#707070"
       stroke-width="1"
       x1="0"
       y1="0"
       x2="0" />
    <line
       id="Line_3"
       data-name="Line 3"
       y2="30"
       transform="translate(51.5,674.5)"
       fill="none"
       stroke="#707070"
       stroke-width="1"
       x1="0"
       y1="0"
       x2="0" />
    <line
       id="Line_4"
       data-name="Line 4"
       y2="30"
       transform="translate(51.5,764.5)"
       fill="none"
       stroke="#707070"
       stroke-width="1"
       x1="0"
       y1="0"
       x2="0" />
    <g
       id="Ellipse_3"
       data-name="Ellipse 3"
       transform="translate(49,604)"
       fill="#ffffff"
       stroke="#707070"
       stroke-width="1">
      <circle
         cx="2.5"
         cy="2.5"
         r="2.5"
         stroke="none"
         id="circle77" />
      <circle
         cx="2.5"
         cy="2.5"
         r="2"
         fill="none"
         id="circle79" />
    </g>
    <g
       id="Ellipse_5"
       data-name="Ellipse 5"
       transform="translate(49,703)"
       fill="#ffffff"
       stroke="#707070"
       stroke-width="1">
      <circle
         cx="2.5"
         cy="2.5"
         r="2.5"
         stroke="none"
         id="circle82" />
      <circle
         cx="2.5"
         cy="2.5"
         r="2"
         fill="none"
         id="circle84" />
    </g>
    <g
       id="Ellipse_4"
       data-name="Ellipse 4"
       transform="translate(49,794)"
       fill="#ffffff"
       stroke="#707070"
       stroke-width="1">
      <circle
         cx="2.5"
         cy="2.5"
         r="2.5"
         stroke="none"
         id="circle87" />
      <circle
         cx="2.5"
         cy="2.5"
         r="2"
         fill="none"
         id="circle89" />
    </g>
  </g>
</svg>
