<?xml version="1.0" encoding="UTF-8" standalone="no"?>
<svg width="1289" height="616" viewBox="0 0 1289 616" version="1.1" id="svg82" sodipodi:docname="cara-penggunaan.svg"
   inkscape:version="1.1 (c68e22c387, 2021-05-23)" xmlns:inkscape="http://www.inkscape.org/namespaces/inkscape"
   xmlns:sodipodi="http://sodipodi.sourceforge.net/DTD/sodipodi-0.dtd" xmlns="http://www.w3.org/2000/svg"
   xmlns:svg="http://www.w3.org/2000/svg">
   <sodipodi:namedview id="namedview84" pagecolor="#505050" bordercolor="#eeeeee" borderopacity="1"
      inkscape:pageshadow="0" inkscape:pageopacity="0" inkscape:pagecheckerboard="0" showgrid="false"
      inkscape:snap-global="true" inkscape:lockguides="false" inkscape:snap-text-baseline="true"
      inkscape:zoom="0.25730437" inkscape:cx="489.69241" inkscape:cy="-122.4231" inkscape:window-width="1920"
      inkscape:window-height="986" inkscape:window-x="-11" inkscape:window-y="-11" inkscape:window-maximized="1"
      inkscape:current-layer="Gambar" />
   <defs id="defs7">
      <linearGradient id="linear-gradient" x1="230.71643" y1="313.10785" x2="226.68254" y2="309.35897"
         gradientUnits="userSpaceOnUse" gradientTransform="scale(0.95847805,1.0433207)">
         <stop offset="0" stop-color="#fff" id="stop2" />
         <stop offset="1" stop-color="#fff" stop-opacity="0" id="stop4" />
      </linearGradient>
   </defs>
   <g id="Gambar" transform="translate(-320 -2010)">
      <g id="g958" transform="matrix(0.90043688,0,0,0.90043688,90.718946,231.46258)">
         <text id="Upload_file_yang_dibutuhkan" data-name="Upload file yang dibutuhkan" fill="#707070" font-size="30px"
            font-family="Montserrat-Medium, Montserrat" font-weight="500" x="927.39673" y="2252.9612"
            style="text-align:center;text-anchor:middle">
            <tspan sodipodi:role="line" id="tspan33404" x="719.99194" y="2252.9612">
               <tspan x="719.99194" y="2252.9612" id="tspan38" style="text-align:center;text-anchor:middle">Verifikasi
                  berkas</tspan>
            </tspan>
            <tspan sodipodi:role="line" id="tspan33406" x="719.99194" y="2290.4612">permohonan</tspan>
         </text>
         <g id="File" transform="translate(608,2010)">
            <path id="path4"
               d="m 32.881,10.236 a 9.5,9.5 0 0 0 -9.506,9.558 v 156.3 a 9.5,9.5 0 0 0 9.506,9.558 h 87.349 a 36.466,36.466 0 0 1 38.2,-58 v -69 h -34.956 c -7.158,0 -13.4,-5.221 -13.4,-12.155 V 10.236 Z m 83.84,0 v 36.258 c 0,2.849 2.712,5.506 6.753,5.506 h 34.959 z"
               transform="translate(15.48,6.779)" fill="#95b0c9" />
            <rect id="rect2" width="213" height="213" opacity="0" x="0" y="0" />
            <rect id="rect6" width="63.209" height="10.282" rx="1.767" transform="translate(56.777,60.501)"
               fill="#4d4d4d" x="0" y="0" />
            <rect id="rect8" width="99.212997" height="10.282" rx="1.767" transform="translate(56.777,108.422)"
               fill="#4d4d4d" x="0" y="0" />
            <rect id="rect10" width="63.209" height="10.282" rx="1.767" transform="translate(56.777,84.46)"
               fill="#4d4d4d" x="0" y="0" />
            <path id="rect12"
               d="m 37.094,79.641 a 2.932,2.932 0 0 0 -2.938,2.938 v 4.406 a 2.932,2.932 0 0 0 2.938,2.938 h 79.749 a 36.468,36.468 0 0 1 16.236,-8.6 2.922,2.922 0 0 0 -2.646,-1.682 z"
               transform="translate(22.62,52.742)" fill="#4d4d4d" />
            <path id="rect14"
               d="m 37.094,94.055 a 2.932,2.932 0 0 0 -2.938,2.938 v 4.407 a 2.932,2.932 0 0 0 2.938,2.938 h 68.039 a 36.468,36.468 0 0 1 2.36,-10.282 z"
               transform="translate(22.62,62.287)" fill="#4d4d4d" />
            <circle id="path851" cx="36.467999" cy="36.467999" r="36.467999" transform="translate(127.636,133.08)"
               fill="none" stroke="#95b0c9" stroke-linecap="round" stroke-width="3" />
            <path id="path888" d="m 124.262,131.515 -16.4,-4.6 -1.542,-9.112 -1.735,9.05 -16.449,4.342 18.6,-44.993 z"
               transform="translate(58.371,57.087)" fill="#95b0c9" />
         </g>
         <g id="Group_6" data-name="Group 6" transform="translate(210.527,-56)">
            <path id="path2"
               d="m 212.952,141.047 a 86.545,86.545 0 1 0 86.548,86.542 86.544,86.544 0 0 0 -86.543,-86.542 z m 0,4.179 a 3.076,3.076 0 0 1 3.083,3.083 v 8.214 l -0.02,-0.006 c 3,1.234 5.156,4.827 5.156,9.094 v 51.4 c 0,0.4 -0.022,0.8 -0.058,1.192 a 12.331,12.331 0 0 1 4.032,5.856 l 34.385,19.851 c 4.221,2.436 5.957,7.273 3.9,10.846 -2.057,3.573 -7.12,4.485 -11.338,2.049 l -32.121,-18.543 a 12.319,12.319 0 0 1 -13.66,-20.493 c -0.016,-0.251 -0.026,-0.5 -0.026,-0.759 v -51.4 a 10.2,10.2 0 0 1 3.845,-8.369 c -0.085,0.061 -0.171,0.121 -0.256,0.187 v -9.12 a 3.076,3.076 0 0 1 3.077,-3.082 z m -1.143,11.151 c -0.089,0.029 -0.178,0.063 -0.268,0.1 0.088,-0.037 0.177,-0.069 0.267,-0.1 z m -0.311,0.113 c -0.113,0.044 -0.225,0.093 -0.337,0.146 0.11,-0.052 0.222,-0.1 0.339,-0.145 z m -0.337,0.146 q -0.17,0.079 -0.338,0.171 0.165,-0.091 0.337,-0.171 z m -0.338,0.171 c -0.107,0.058 -0.215,0.12 -0.322,0.186 0.099,-0.065 0.212,-0.128 0.32,-0.186 z m -0.35,0.2 c -0.1,0.062 -0.2,0.126 -0.3,0.2 0.1,-0.069 0.198,-0.134 0.299,-0.197 z m -75.161,67.5 h 15.5 a 3.083,3.083 0 0 1 0,6.166 h -15.5 a 3.083,3.083 0 0 1 0,-6.166 z m 140.311,0 h 15.5 a 3.083,3.083 0 0 1 0,6.166 h -15.5 a 3.083,3.083 0 0 1 0,-6.166 z m -62.67,61.907 a 3.076,3.076 0 0 1 3.083,3.083 V 305 a 3.083,3.083 0 0 1 -6.166,0 v -15.5 a 3.076,3.076 0 0 1 3.081,-3.085 z"
               transform="translate(775.594,1937.953)" fill="#95b0c9" />
            <g id="hourglass" transform="translate(944.63,2110.404)">
               <path id="path928"
                  d="m 106.5,87.649 c 0,0 -5.731,8.04 -0.691,20.733 5.04,12.693 21.322,18.065 21.286,25.571 -0.036,7.506 -16.737,14.945 -21.148,27.091 -4.411,12.146 -1.106,17.83 -1.106,17.83 l 48.93,0.829 c 0,0 5.19,-12.308 -2.626,-23.636 -7.816,-11.328 -18.779,-15.642 -18.8,-22.53 -0.021,-6.888 21.22,-15.654 22.806,-30.961 1.586,-15.307 -4.7,-15.481 -4.7,-15.481 z"
                  transform="translate(-13.953,-31.475)" fill="#ffffff" stroke="#4d4d4d" stroke-width="1" />
               <path id="path936"
                  d="m 105.953,60.936 h 47.987 a 1.758,1.758 0 0 1 1.758,1.758 v 4.587 a 1.758,1.758 0 0 1 -1.758,1.758 h -47.987 a 1.758,1.758 0 0 1 -1.758,-1.758 v -4.587 a 1.758,1.758 0 0 1 1.758,-1.758"
                  transform="translate(-14.344,-12.547)" fill="#4d4d4d" opacity="0.99" />
               <path id="path938"
                  d="m 87.455,43.6 h 56.618 a 2.1,2.1 0 0 1 2.1,2.1 v 5.477 a 2.1,2.1 0 0 1 -2.1,2.1 H 87.455 a 2.1,2.1 0 0 1 -2.1,-2.1 V 45.7 a 2.1,2.1 0 0 1 2.1,-2.1"
                  transform="translate(-0.713)" fill="#4d4d4d" opacity="0.99" />
               <path id="path940"
                  d="m 103.77,367.122 c 1.345,-0.2 51.074,0.147 51.074,0.147 a 26.852,26.852 0 0 0 0.465,-4.993 c 0,0 -20.264,-10.665 -25.9,-10.613 -5.771,0.054 -25.7,9.871 -25.7,9.871 a 14.543,14.543 0 0 0 0.064,5.588 z"
                  transform="translate(-13.829,-222.905)" fill="#95b0c9" />
               <path id="path942"
                  d="M 103.478,406.706 H 153 a 1.757,1.757 0 0 1 1.757,1.757 v 4.583 A 1.757,1.757 0 0 1 153,414.8 h -49.522 a 1.757,1.757 0 0 1 -1.757,-1.757 v -4.583 a 1.757,1.757 0 0 1 1.757,-1.757"
                  transform="translate(-12.554,-262.732)" fill="#4d4d4d" opacity="0.99" />
               <path id="path944"
                  d="m 86.469,415.356 h 57.276 a 2.1,2.1 0 0 1 2.1,2.1 v 5.474 a 2.1,2.1 0 0 1 -2.1,2.1 H 86.469 a 2.1,2.1 0 0 1 -2.1,-2.1 v -5.474 a 2.1,2.1 0 0 1 2.1,-2.1"
                  transform="translate(0,-268.991)" fill="#4d4d4d" opacity="0.99" />
               <path id="path946"
                  d="m 113.6,154.132 c 7.763,-3.231 47.578,-2.29 47.238,1.137 -1.382,3.8 -2.312,6.234 -21.468,23 l -2,2.464 -0.049,27.119 -0.681,-0.037 0.028,-27.064 -2.149,-2.572 c -5.707,-8.089 -22.36,-18.263 -20.915,-24.043 z"
                  transform="translate(-21.084,-78.54)" fill="#95b0c9" />
               <path id="path960"
                  d="m 229.815,160.388 c -2.88,8.781 -9.348,13.789 -21.013,22.87 0,0 7.45,-8 10.946,-11.533 9.095,-9.188 8.015,-11.435 10.067,-11.337 z"
                  transform="translate(-90.034,-84.504)" fill="url(#linear-gradient)"
                  style="fill:url(#linear-gradient)" />
            </g>
         </g>
         <g id="Arah" transform="translate(26)">
            <rect id="Rectangle_4" data-name="Rectangle 4" width="128" height="27" rx="13"
               transform="translate(861,2086)" fill="#95b0c9" x="0" y="0" />
            <path id="Polygon_1" data-name="Polygon 1"
               d="m 33.551,12.182 a 8,8 0 0 1 13.9,0 L 74.176,59.036 A 8,8 0 0 1 67.227,71 H 13.773 A 8,8 0 0 1 6.824,59.036 Z"
               transform="rotate(90,-505.5,1553.5)" fill="#95b0c9" />
         </g>
         <text id="Menunggu_konfirmasi" data-name="Menunggu konfirmasi" fill="#707070" font-size="30px"
            font-family="Montserrat-Medium, Montserrat" font-weight="500" x="1206.9764" y="2244.4414"
            style="text-align:center;text-anchor:middle">
            <tspan sodipodi:role="line" id="tspan35034" x="1206.9764" y="2244.4414">Permohonan</tspan>
            <tspan sodipodi:role="line" id="tspan35036" x="1206.9764" y="2281.9414">rekomendasi</tspan>
            <tspan sodipodi:role="line" x="1206.9764" y="2319.4414" id="tspan35038">ke KEMENPAN</tspan>
         </text>
         <g id="Group_8" data-name="Group 8" transform="translate(120,59)">
            <text id="Mengajukan_judul" data-name="Mengajukan judul" fill="#707070" font-size="25.0663px"
               font-family="Montserrat-Medium, Montserrat" font-weight="500" x="301.14658" y="2490.0964"
               style="stroke-width:0.835544">
               <tspan sodipodi:role="line" id="tspan2393" x="301.14658" y="2490.0964"
                  style="text-align:center;text-anchor:middle;stroke-width:0.835544">Penerbitan rekomendasi</tspan>
               <tspan sodipodi:role="line" id="tspan2395" x="301.14658" y="2521.4292"
                  style="text-align:center;text-anchor:middle;stroke-width:0.835544">pembangunan aplikasi</tspan>
               <tspan sodipodi:role="line" x="301.14658" y="2552.7622" id="tspan4167"
                  style="text-align:center;text-anchor:middle;stroke-width:0.835544">ke DISKOMINFO</tspan>
            </text>
            <g id="g10" transform="translate(-31.963,2700.2)">
               <path id="path28" d="m 354.164,-422.2 h -106.2 v 180.4 H 398.3 v -127.85 z" fill="#95b0c9" />
               <g id="Group_7" data-name="Group 7" transform="translate(31)">
                  <path id="path32"
                     d="m 349,-253.98 -7.787,-7.786 a 2.052,2.052 0 0 1 0,-2.892 l 30.446,-30.442 10.678,10.678 -30.445,30.442 a 2.049,2.049 0 0 1 -2.891,0"
                     transform="translate(-3.241,-5.05)" fill="#4d4d4d" />
                  <path id="path36"
                     d="m 337.229,420.425 -3.5,13.065 -1.84,1.839 a 0.788,0.788 0 1 0 1.111,1.116 l 1.841,-1.841 13.064,-3.5 z"
                     transform="translate(0,-689.389)" fill="#4d4d4d" />
                  <path id="path40"
                     d="m 399.928,-289.474 -10.678,-10.678 7.669,-7.669 a 4.268,4.268 0 0 1 6.018,0 l 4.661,4.66 a 4.268,4.268 0 0 1 0,6.018 z"
                     transform="translate(-20.832)" fill="#4d4d4d" />
               </g>
               <path id="path64" d="m 354.164,-422.2 v 52.961 H 398.3 v -0.411 z" fill="#66829b" />
               <path id="path68"
                  d="m 327.251,-385.14 h -57.672 a 2.06,2.06 0 0 1 -2.06,-2.06 2.06,2.06 0 0 1 2.06,-2.06 h 57.672 a 2.06,2.06 0 0 1 2.06,2.06 2.06,2.06 0 0 1 -2.06,2.06"
                  fill="#4d4d4d" />
               <path id="path72"
                  d="m 366.386,-349.712 h -96.808 a 2.06,2.06 0 0 1 -2.06,-2.06 2.06,2.06 0 0 1 2.06,-2.06 h 96.808 a 2.06,2.06 0 0 1 2.06,2.06 2.06,2.06 0 0 1 -2.06,2.06"
                  fill="#4d4d4d" />
               <path id="path76"
                  d="m 366.386,-314.286 h -96.808 a 2.06,2.06 0 0 1 -2.06,-2.06 2.061,2.061 0 0 1 2.06,-2.06 h 96.808 a 2.06,2.06 0 0 1 2.06,2.06 2.059,2.059 0 0 1 -2.06,2.06"
                  fill="#4d4d4d" />
               <path id="path80"
                  d="m 366.386,-278.858 h -96.808 a 2.06,2.06 0 0 1 -2.06,-2.06 2.06,2.06 0 0 1 2.06,-2.06 h 96.808 a 2.06,2.06 0 0 1 2.06,2.06 2.059,2.059 0 0 1 -2.06,2.06"
                  fill="#4d4d4d" />
            </g>
         </g>
         <g id="Group_9" data-name="Group 9" transform="translate(40,52)">
            <text id="Mengerjakan_judul" data-name="Mengerjakan judul" fill="#707070" font-size="30px"
               font-family="Montserrat-Medium, Montserrat" font-weight="500" x="1467.342" y="2502.7039"
               style="text-align:center;text-anchor:middle">
               <tspan sodipodi:role="line" x="1467.342" y="2502.7039" id="tspan40284">Prosespem bangunan</tspan>
               <tspan sodipodi:role="line" x="1467.342" y="2540.2039" id="tspan40288">aplikasi</tspan>
            </text>
            <g id="kerja" transform="translate(440.767,2133.041)">
               <g id="g1093" transform="translate(943.233,107.959)">
                  <path id="path963"
                     d="m 887.429,69.495 a 2.914,2.914 0 0 0 -3.289,2.364 l -1.84,8.423 a 26.416,26.416 0 0 0 -10.567,2.367 l -5.523,-6.582 a 2.858,2.858 0 0 0 -4,-0.654 l -7.19,5.168 a 2.858,2.858 0 0 0 -0.654,4 l 4.5,7.363 a 26.411,26.411 0 0 0 -5.652,9.228 l -8.551,-0.937 a 2.915,2.915 0 0 0 -3.29,2.365 l -1.43,8.738 a 2.915,2.915 0 0 0 2.365,3.289 l 8.423,1.84 a 26.418,26.418 0 0 0 2.367,10.567 l -6.582,5.523 a 2.858,2.858 0 0 0 -0.654,4 l 5.168,7.19 a 2.94,2.94 0 0 0 4,0.654 l 7.363,-4.5 a 26.41,26.41 0 0 0 9.229,5.652 l -0.937,8.551 a 2.915,2.915 0 0 0 2.364,3.289 l 8.738,1.429 a 2.915,2.915 0 0 0 3.29,-2.364 l 1.84,-8.423 a 26.418,26.418 0 0 0 10.567,-2.367 l 5.523,6.582 a 2.858,2.858 0 0 0 4,0.654 l 7.189,-5.168 a 2.858,2.858 0 0 0 0.654,-4 l -4.5,-7.362 a 26.411,26.411 0 0 0 5.65,-9.232 l 8.551,0.937 a 2.915,2.915 0 0 0 3.29,-2.364 l 1.429,-8.738 a 2.915,2.915 0 0 0 -2.364,-3.29 l -8.423,-1.84 a 26.418,26.418 0 0 0 -2.367,-10.567 l 6.582,-5.523 a 2.858,2.858 0 0 0 0.654,-4 l -5.168,-7.189 a 2.858,2.858 0 0 0 -4,-0.654 l -7.363,4.5 a 26.408,26.408 0 0 0 -9.228,-5.652 l 0.937,-8.551 a 2.915,2.915 0 0 0 -2.365,-3.289 z m 0.853,22.206 A 22.754,22.754 0 1 1 862.153,110.483 22.754,22.754 0 0 1 888.282,91.7 Z"
                     transform="translate(-821.998,59.626)" fill="#95b0c9" />
                  <path id="path969"
                     d="m 961.417,-36.929 a 2.459,2.459 0 0 0 -2.07,2.72 l 0.6,7.25 A 22.289,22.289 0 0 0 952,-22.441 l -6.081,-3.947 a 2.412,2.412 0 0 0 -3.387,0.459 l -4.524,5.944 a 2.412,2.412 0 0 0 0.459,3.387 l 5.448,4.829 a 22.281,22.281 0 0 0 -2.281,8.84 l -7.13,1.355 a 2.459,2.459 0 0 0 -2.07,2.72 l 1,7.4 a 2.459,2.459 0 0 0 2.72,2.07 l 7.25,-0.6 a 22.287,22.287 0 0 0 4.519,7.94 l -3.947,6.081 a 2.411,2.411 0 0 0 0.459,3.387 l 5.944,4.524 a 2.48,2.48 0 0 0 3.387,-0.459 l 4.829,-5.448 a 22.282,22.282 0 0 0 8.841,2.281 l 1.355,7.13 a 2.459,2.459 0 0 0 2.72,2.07 l 7.4,-1 a 2.459,2.459 0 0 0 2.07,-2.72 l -0.6,-7.25 a 22.287,22.287 0 0 0 7.94,-4.519 l 6.081,3.947 a 2.412,2.412 0 0 0 3.387,-0.459 l 4.524,-5.944 a 2.411,2.411 0 0 0 -0.459,-3.387 l -5.448,-4.829 A 22.282,22.282 0 0 0 998.7,2.524 l 7.13,-1.355 a 2.459,2.459 0 0 0 2.07,-2.72 l -1,-7.4 a 2.459,2.459 0 0 0 -2.72,-2.07 l -7.25,0.6 a 22.287,22.287 0 0 0 -4.519,-7.94 l 3.947,-6.081 a 2.411,2.411 0 0 0 -0.459,-3.387 l -5.949,-4.531 a 2.412,2.412 0 0 0 -3.387,0.459 l -4.829,5.448 a 22.281,22.281 0 0 0 -8.84,-2.281 l -1.355,-7.13 a 2.459,2.459 0 0 0 -2.72,-2.07 z m 6.171,17.7 a 19.2,19.2 0 0 1 21.6,16.443 19.2,19.2 0 0 1 -16.443,21.6 19.2,19.2 0 0 1 -21.6,-16.443 19.2,19.2 0 0 1 16.443,-21.6 z"
                     transform="translate(-863.799,108.163)" fill="#95b0c9" />
                  <path id="path975"
                     d="m 877.91,-57.857 a 1.87,1.87 0 0 0 -2.488,0.752 l -2.865,4.731 a 16.947,16.947 0 0 0 -6.906,-0.757 l -1.986,-5.142 a 1.834,1.834 0 0 0 -2.291,-1.227 l -5.437,1.644 a 1.834,1.834 0 0 0 -1.227,2.291 l 1.2,5.4 a 16.942,16.942 0 0 0 -5.347,4.428 l -5,-2.344 a 1.87,1.87 0 0 0 -2.488,0.752 l -2.675,5.012 a 1.87,1.87 0 0 0 0.752,2.488 l 4.731,2.865 a 16.947,16.947 0 0 0 -0.757,6.905 l -5.142,1.986 a 1.834,1.834 0 0 0 -1.227,2.291 l 1.644,5.437 a 1.886,1.886 0 0 0 2.291,1.227 l 5.4,-1.2 a 16.943,16.943 0 0 0 4.428,5.347 l -2.344,5 a 1.87,1.87 0 0 0 0.752,2.488 l 5.007,2.682 a 1.87,1.87 0 0 0 2.488,-0.752 l 2.865,-4.731 a 16.947,16.947 0 0 0 6.905,0.757 l 1.986,5.142 a 1.834,1.834 0 0 0 2.291,1.227 l 5.437,-1.644 a 1.834,1.834 0 0 0 1.235,-2.298 l -1.2,-5.4 a 16.943,16.943 0 0 0 5.347,-4.428 l 5,2.344 a 1.87,1.87 0 0 0 2.487,-0.752 l 2.682,-5.007 a 1.87,1.87 0 0 0 -0.752,-2.488 l -4.739,-2.869 a 16.947,16.947 0 0 0 0.757,-6.905 l 5.142,-1.986 a 1.834,1.834 0 0 0 1.227,-2.291 l -1.644,-5.437 a 1.834,1.834 0 0 0 -2.291,-1.227 l -5.4,1.2 a 16.942,16.942 0 0 0 -4.428,-5.347 l 2.344,-5 a 1.87,1.87 0 0 0 -0.753,-2.488 z m -4.092,13.657 a 14.6,14.6 0 0 1 5.976,19.759 14.6,14.6 0 0 1 -19.759,5.976 14.6,14.6 0 0 1 -5.976,-19.759 14.6,14.6 0 0 1 19.759,-5.976 z"
                     transform="translate(-821.443,117.934)" fill="#95b0c9" />
                  <g id="g993" transform="matrix(0.926,0.378,-0.378,0.926,95.869,0)">
                     <path id="path987"
                        d="M 2.505,0 A 5.908,5.908 0 0 0 3.628,10.28 V 37.763 A 5.908,5.908 0 0 0 2.505,48.043 V 44 L 5.991,41.371 9.477,44 v 3.945 A 5.913,5.913 0 0 0 8.216,37.757 V 10.286 A 5.913,5.913 0 0 0 9.477,0.1 V 4.047 L 5.991,6.676 2.505,4.047 Z"
                        transform="translate(0,7.884)" fill="#95b0c9" />
                     <path id="path989"
                        d="M 2.475,0 0,1.429 V 4.287 L 2.475,5.716 4.95,4.287 V 1.429 Z m 0,1.92 A 0.938,0.938 0 1 1 1.537,2.858 0.938,0.938 0 0 1 2.475,1.92 Z"
                        transform="translate(4.123,7.355)" fill="#95b0c9" />
                     <path id="path991"
                        d="M 3.336,0 0,1.926 V 5.779 L 3.336,7.705 6.673,5.779 V 1.926 Z m 0,2.588 A 1.265,1.265 0 1 1 2.072,3.853 1.265,1.265 0 0 1 3.336,2.588 Z"
                        transform="translate(9.408)" fill="#95b0c9" />
                  </g>
                  <path id="path1069"
                     d="m 1071.47,108.44 a 5.908,5.908 0 0 1 2.851,9.941 l 10.4,25.439 a 5.909,5.909 0 0 1 4.929,9.091 l -1.531,-3.746 -4.221,-1.114 -2.232,3.752 1.493,3.652 a 5.913,5.913 0 0 1 -2.686,-9.9 l -10.395,-25.429 a 5.913,5.913 0 0 1 -5.021,-8.95 l 1.493,3.652 4.221,1.114 2.232,-3.752 z"
                     transform="translate(-923.357,42.011)" fill="#95b0c9" />
                  <path id="path1071"
                     d="m 1068.727,110.374 2.832,0.386 1.081,2.646 -1.75,2.259 -2.832,-0.386 -1.082,-2.646 z m 0.726,1.777 a 0.938,0.938 0 1 0 1.224,0.514 0.939,0.939 0 0 0 -1.224,-0.514 z"
                     transform="translate(-924.604,41.137)" fill="#95b0c9" />
                  <path id="path1073"
                     d="m 820.053,182.355 3.817,0.521 1.458,3.566 -2.359,3.045 -3.817,-0.521 -1.458,-3.566 z m 0.979,2.4 a 1.265,1.265 0 1 0 1.649,0.692 1.265,1.265 0 0 0 -1.649,-0.692 z"
                     transform="translate(-811.96,8.61)" fill="#95b0c9" />
                  <path id="path1080"
                     d="m 809.593,44.907 3.817,0.521 1.458,3.566 -2.359,3.045 -3.817,-0.521 -1.458,-3.566 z m 0.979,2.4 a 1.265,1.265 0 1 0 1.649,0.692 1.265,1.265 0 0 0 -1.649,-0.699 z"
                     transform="translate(-807.233,70.72)" fill="#95b0c9" />
               </g>
            </g>
         </g>
         <path id="Union_1" data-name="Union 1"
            d="M 0,137.677 V 27 h 92.4 q 0.5,0 1,0.038 V 13.774 a 8,8 0 0 1 11.964,-6.949 l 46.854,26.726 a 8,8 0 0 1 0,13.9 L 105.367,74.175 A 8,8 0 0 1 93.4,67.226 V 53.962 Q 92.9,54 92.4,54 H 23.372 v 84.281 c 0.219,5.021 -5.952,8.577 -12.029,8.578 -5.217,0 -10.364,-2.62 -11.343,-9.182 z"
            transform="translate(390,2077)" fill="#95b0c9" />
         <path id="Union_2" data-name="Union 2"
            d="M 0,131.915 V 21.238 h 92.4 q 0.5,0 1,0.038 V 8.012 a 8,8 0 0 1 11.964,-6.949 l 46.854,26.726 a 8,8 0 0 1 0,13.9 L 105.367,68.413 A 8,8 0 0 1 93.4,61.465 V 48.2 q -0.5,0.038 -1,0.038 H 23.372 v 84.282 c 0.219,5.021 -5.952,8.577 -12.029,8.578 C 6.126,141.1 0.979,138.477 0,131.915 Z"
            transform="rotate(90,-276.2525,1815.9295)" fill="#95b0c9" />
      </g>
   </g>
</svg>