<?xml version="1.0" encoding="UTF-8" standalone="no"?>
<!-- Created with Inkscape (http://www.inkscape.org/) -->

<svg
   width="3000mm"
   height="3000mm"
   viewBox="0 0 3000 3000"
   version="1.1"
   id="svg856"
   inkscape:version="1.1 (c68e22c387, 2021-05-23)"
   sodipodi:docname="form2.svg"
   xmlns:inkscape="http://www.inkscape.org/namespaces/inkscape"
   xmlns:sodipodi="http://sodipodi.sourceforge.net/DTD/sodipodi-0.dtd"
   xmlns:xlink="http://www.w3.org/1999/xlink"
   xmlns="http://www.w3.org/2000/svg"
   xmlns:svg="http://www.w3.org/2000/svg">
  <sodipodi:namedview
     id="namedview858"
     pagecolor="#ffffff"
     bordercolor="#666666"
     borderopacity="1.0"
     inkscape:pageshadow="2"
     inkscape:pageopacity="0.0"
     inkscape:pagecheckerboard="0"
     inkscape:document-units="mm"
     showgrid="false"
     units="mm"
     width="3000mm"
     inkscape:zoom="0.02"
     inkscape:cx="4600"
     inkscape:cy="5025"
     inkscape:window-width="1366"
     inkscape:window-height="705"
     inkscape:window-x="-8"
     inkscape:window-y="-8"
     inkscape:window-maximized="1"
     inkscape:current-layer="layer1" />
  <defs
     id="defs853">
    <linearGradient
       inkscape:collect="always"
       xlink:href="#a"
       id="linearGradient6968"
       gradientUnits="userSpaceOnUse"
       gradientTransform="matrix(278.39,273.89,-273.89,278.39,1214.6,446.11)"
       x2="1" />
    <linearGradient
       id="a"
       x2="1"
       gradientTransform="matrix(278.39,273.89,-273.89,278.39,1214.6,446.11)"
       gradientUnits="userSpaceOnUse">
      <stop
         stop-color="#212121"
         stop-opacity=".61569"
         offset="0"
         id="stop360" />
      <stop
         stop-color="#4d4d4d"
         stop-opacity="0"
         offset="1"
         id="stop362" />
    </linearGradient>
  </defs>
  <g
     inkscape:label="Layer 1"
     inkscape:groupmode="layer"
     id="layer1">
    <g
       transform="matrix(2.130544,0.94842645,-0.94842645,2.130544,33.95016,-1025.2728)"
       id="g6966"
       inkscape:export-filename="E:\website\xampp\htdocs\amaw.com\kumb\tampilan\img\doc.png"
       inkscape:export-xdpi="96"
       inkscape:export-ydpi="96">
      <path
         d="M 629.27,911.11 V 287.09 c 0,-41.778 33.867,-75.646 75.645,-75.646 h 416.3 l 311.9,311.9 v 451.04 h -803.84 v -63.27 z"
         fill="#eb0005"
         id="path6940" />
      <g
         transform="matrix(1,0,0,0.87323,0,160.45)"
         id="g6944">
        <path
           d="m 1433.1,932.09 v 241.64 c 0,38.83 -33.86,70.3 -75.64,70.3 H 704.9 c -41.778,0 -75.645,-31.47 -75.645,-70.3 V 932.09 h 803.84 z"
           fill="#c20004"
           id="path6942" />
      </g>
      <g
         transform="matrix(2.1188,0,0,2.1188,-322.9,-1007.5)"
         id="g6948">
        <path
           d="M 712.71,904 H 565.42 c -0.246,-0.011 -0.492,-0.011 -0.737,-0.034 -0.735,-0.068 -1.46,-0.239 -2.148,-0.505 -1.148,-0.445 -2.187,-1.157 -3.017,-2.067 -0.829,-0.91 -1.442,-2.01 -1.779,-3.194 -0.135,-0.474 -0.226,-0.959 -0.271,-1.449 -0.023,-0.245 -0.023,-0.491 -0.034,-0.737 v -186.12 c 0.011,-0.246 0.011,-0.492 0.034,-0.737 0.068,-0.735 0.239,-1.46 0.505,-2.148 0.445,-1.148 1.157,-2.187 2.067,-3.017 0.91,-0.829 2.01,-1.442 3.195,-1.779 0.473,-0.135 0.958,-0.226 1.448,-0.271 0.245,-0.023 0.491,-0.023 0.737,-0.034 h 147.29 c 0.245,0.011 0.491,0.022 0.736,0.034 0.244,0.034 0.489,0.057 0.731,0.102 0.484,0.09 0.958,0.225 1.417,0.403 0.918,0.356 1.768,0.882 2.496,1.545 0.91,0.83 1.622,1.869 2.066,3.017 0.267,0.688 0.437,1.413 0.506,2.148 0.022,0.245 0.022,0.491 0.034,0.737 v 186.12 c -0.012,0.246 -0.012,0.492 -0.034,0.737 -0.069,0.735 -0.239,1.46 -0.506,2.148 -0.444,1.148 -1.156,2.187 -2.066,3.017 -0.91,0.829 -2.011,1.442 -3.195,1.779 -0.473,0.135 -0.958,0.226 -1.449,0.271 -0.244,0.023 -0.491,0.023 -0.736,0.034 z m -7.987,-186.12 h -131.32 v 170.15 h 131.32 z m -14.649,137.78 v 11.148 H 583.984 V 855.66 Z m -106.09,-23.329 h 106.09 v 11.148 h -106.09 z m 0,-23.33 h 106.09 v 11.149 h -106.09 z m 0,-23.329 h 106.09 v 11.149 h -106.09 z m 55.083,-46.619 h 51.009 v 34.438 h -51.009 z m -55.083,23.329 h 42.215 v 11.109 h -42.215 z m 0,-23.329 h 42.215 v 11.149 h -42.215 z"
           fill="#ffffff"
           id="path6946" />
      </g>
      <g
         transform="translate(3.2597)"
         id="g6952">
        <path
           d="m 1117.8,211.44 h 0.14 l 311.94,311.94 v 260.83 c -2.19,1.131 -4.06,1.055 -5.56,-0.442 -14.77,-14.769 -292.47,-273.35 -292.47,-294.24 0,-91.863 -13.88,-275.89 -14.05,-278.09 z"
           fill="url(#a)"
           id="path6950"
           style="fill:url(#linearGradient6968)" />
      </g>
      <g
         transform="translate(3.2597)"
         id="g6956">
        <path
           d="m 1117.8,211.44 h 0.14 l 311.94,311.94 h -233.33 c -20.88,0 -40.91,-8.297 -55.68,-23.066 -14.77,-14.769 -23.07,-34.8 -23.07,-55.686 v -233.19 z"
           fill="#c20004"
           id="path6954" />
      </g>
      <g
         transform="translate(0,44.289)"
         fill="#ffffff"
         fill-rule="nonzero"
         id="g6964">
        <path
           d="M 876.68,1138.4 H 837.113 V 983.51 h 44.116 c 17.28,0 29.411,0.847 36.394,2.539 6.982,1.693 12.907,4.585 17.773,8.675 5.713,4.726 10.068,10.634 13.066,17.724 2.997,7.08 4.496,14.97 4.496,23.64 0,9.24 -1.481,17.37 -4.443,24.39 -2.963,7.01 -7.335,12.78 -13.119,17.3 -4.373,3.38 -9.521,5.81 -15.446,7.3 -5.924,1.48 -15.411,2.22 -28.458,2.22 H 876.68 v 51.1 z m 0,-85.17 h 8.041 c 10.156,0 17.244,-1.39 21.264,-4.18 4.021,-2.78 6.031,-7.53 6.031,-14.23 0,-6.49 -1.975,-11.11 -5.925,-13.86 -3.95,-2.75 -10.932,-4.12 -20.947,-4.12 h -8.464 z"
           id="path6958" />
        <path
           d="M 974.43,1138.4 V 983.51 h 32.269 c 24.05,0 41.06,1.129 51.04,3.386 9.98,2.257 18.75,6.03 26.29,11.32 9.81,6.842 17.25,15.602 22.33,26.292 5.07,10.68 7.61,22.87 7.61,36.55 0,13.68 -2.54,25.87 -7.61,36.55 -5.08,10.69 -12.52,19.45 -22.33,26.29 -7.47,5.22 -16.01,8.94 -25.6,11.16 -9.59,2.22 -24.47,3.34 -44.64,3.34 H 974.43 Z m 41.789,-34.71 h 7.09 c 16.57,0 28.67,-3.4 36.29,-10.21 7.61,-6.8 11.42,-17.61 11.42,-32.42 0,-14.81 -3.81,-25.67 -11.42,-32.59 -7.62,-6.91 -19.72,-10.36 -36.29,-10.36 h -7.09 z"
           id="path6960" />
        <path
           d="M 1140.4,1138.4 V 983.51 h 94.9 v 33.958 h -53.74 v 26.87 h 50.67 v 33.22 h -50.67 v 60.84 h -41.16 z"
           id="path6962" />
      </g>
    </g>
  </g>
</svg>
