<?xml version="1.0" encoding="UTF-8" standalone="no"?>
<svg
   version="1.1"
   width="1920px"
   height="1300px"
   viewBox="-600 61 1920 1300"
   id="svg137"
   sodipodi:docname="form.svg"
   inkscape:version="1.1 (c68e22c387, 2021-05-23)"
   xmlns:inkscape="http://www.inkscape.org/namespaces/inkscape"
   xmlns:sodipodi="http://sodipodi.sourceforge.net/DTD/sodipodi-0.dtd"
   xmlns="http://www.w3.org/2000/svg"
   xmlns:svg="http://www.w3.org/2000/svg">
  <defs
     id="defs141" />
  <sodipodi:namedview
     id="namedview139"
     pagecolor="#ffffff"
     bordercolor="#666666"
     borderopacity="1.0"
     inkscape:pageshadow="2"
     inkscape:pageopacity="0.0"
     inkscape:pagecheckerboard="0"
     showgrid="false"
     inkscape:zoom="0.14142136"
     inkscape:cx="1697.0563"
     inkscape:cy="1092.48"
     inkscape:window-width="1366"
     inkscape:window-height="705"
     inkscape:window-x="-8"
     inkscape:window-y="-8"
     inkscape:window-maximized="1"
     inkscape:current-layer="svg137" />
  <g
     id="g116">
    <g
       style="fill:#000000;fill-opacity:1;stroke-linejoin:miter"
       id="g114" />
  </g>
  <g
     id="g8900">
    <g
       style="fill:#000000;fill-opacity:0.333333;stroke-linejoin:miter"
       id="g8">
      <path
         d="m 1218.8975,1224.5824 -7.5334,3.8195 q -53.5559,11.5432 -313.41055,18.4643 -261.65275,6.9152 -616.22778,5.6078 -338.39585,-1.8265 -541.28267,-10.6909 -65.00725,-2.8654 -107.0922,-6.244 l -35.37126,-3.4739 q -29.14917,-3.5853 -29.47674,-7.4827 8.8488,-11.9619 241.6945,-19.9045 232.845943,-7.9429 583.50264,-8.2444 350.65666,0.3015 583.5026,8.2444 232.84586,7.9425 241.69486,19.9044"
         id="path6" />
    </g>
    <g
       style="fill:#a29797;fill-opacity:1;stroke-linejoin:miter"
       id="g12">
      <path
         d="m 808.0863,1181.0099 h 64.08783 l 64.08771,6e-4 q 0,18.9001 0,37.8003 -64.08771,0 -128.17554,6e-4 0,-18.9008 0,-37.8015"
         id="path10" />
    </g>
    <g
       style="fill:#a29797;fill-opacity:1;stroke-linejoin:miter"
       id="g16">
      <path
         d="m 226.7675,1160.016 186.61955,10e-4 186.61948,2e-4 q 0,24.6713 0,49.3423 -186.61948,10e-4 -373.23903,0 0,-24.6722 0,-49.3447"
         id="path14" />
    </g>
    <g
       style="fill:#a29797;fill-opacity:1;stroke-linejoin:miter"
       id="g20">
      <path
         d="m -157.16238,1175.1573 76.16267,10e-4 76.1628417,6e-4 q 0,18.1711 -3.7e-6,36.3426 -76.162838,3e-4 -152.325508,9e-4 0,-18.1724 0,-36.3451"
         id="path18" />
    </g>
    <g
       style="fill:#8bc7f0;fill-opacity:0.996078;stroke-linejoin:miter"
       id="g24">
      <path
         d="m -61.880466,534.6384 462.103166,4e-4 462.10335,0.001 q -3.5e-4,310.1705 -4.9e-4,620.341 -462.10324,4e-4 -924.206557,0 1.8e-4,-310.17184 5.31e-4,-620.3438"
         id="path22" />
    </g>
    <g
       style="fill:#1a1a1a;fill-opacity:1;stroke-linejoin:miter"
       id="g28">
      <path
         d="m -40.416428,530.76794 c -17.788555,0 -32.110272,14.01221 -32.110272,31.41646 l -2e-4,574.696 c 0,16.5501 -2.33357,30.0321 12.73429,31.3149 l -105.52811,4e-4 c -12.48876,-4e-4 -6.10166,9.7308 -6.10166,21.8185 v 14.5449 c 0,12.0871 10.05386,21.8185 22.54262,21.8185 l 1093.31561,9e-4 c 12.48855,-7e-4 22.54315,-9.7318 22.54315,-21.8194 v -14.5446 c 0,-12.0875 6.3864,-21.8192 -6.10205,-21.8192 l -105.52815,4e-4 c 15.06795,-1.2829 12.73427,-14.7647 12.73427,-31.3146 l 3.7e-4,-574.69683 c 0,-17.40381 -14.32129,-31.41633 -32.11024,-31.41633 l -876.39332,3.6e-4 z M 237.001,538.38727 c 4.56504,0 8.2657,3.62093 8.2657,8.08713 0,4.46597 -3.70066,8.08664 -8.2657,8.08664 -4.56487,0 -8.26548,-3.62031 -8.26548,-8.08664 0,-4.4662 3.70061,-8.08713 8.26548,-8.08713 z m -278.19916,23.85718 877.95716,1.5e-4 -5e-4,574.5692 -877.95703,5e-4 2.08e-4,-574.56985 z m 296.24818,606.05325 285.45958,4e-4 c -0.42604,6.0832 -4.65816,10.8324 -9.855,10.8324 l -265.74933,2e-4 c -5.19735,-2e-4 -9.42907,-4.7494 -9.85513,-10.833 z m 579.59952,17.2096 c 6.7229,0 12.17309,5.2754 12.17309,11.782 0,6.5067 -5.45033,11.7816 -12.17323,11.7816 -6.7225,0 -12.1727,-5.2749 -12.1727,-11.7816 0,-6.5066 5.4502,-11.782 12.17284,-11.782 z m 38.39296,0 c 6.7223,0 12.17247,5.2754 12.17265,11.782 0,6.5067 -5.44989,11.7816 -12.17305,11.7816 -6.72246,0 -12.17235,-5.2749 -12.17235,-11.7816 0,-6.5066 5.44989,-11.782 12.17275,-11.782 z m 38.39335,0 c 6.72229,0 12.172,5.2754 12.172,11.782 0,6.5067 -5.44971,11.7816 -12.17225,11.7816 -6.7229,0 -12.1729,-5.2749 -12.1729,-11.7816 0,-6.5066 5.45,-11.782 12.17315,-11.782 z m -1034.27783,7.8035 63.872166,4e-4 c 3.122192,-4e-4 5.635738,1.7736 5.635738,3.9778 0,2.204 -2.513546,3.9786 -5.635738,3.9786 l -63.872166,4e-4 c -3.12218,-4e-4 -5.63572,-1.775 -5.63572,-3.979 0,-2.2042 2.51354,-3.9782 5.63572,-3.9782 z"
         id="path26" />
    </g>
    <g
       style="fill:#ffffff;fill-opacity:1;stroke-linejoin:miter"
       id="g32">
      <path
         d="m 131.98825,336.62823 277.18995,6.7e-4 277.18984,3e-4 q -1.4e-4,381.09376 -1.4e-4,762.1866 -277.18986,7e-4 -554.37973,0 3e-5,-381.0943 8e-5,-762.18907"
         id="path30" />
    </g>
    <g
       style="fill:#848c93;fill-opacity:1;stroke-linejoin:miter"
       id="g36">
      <path
         d="m 188.94162,856.2228 9.38702,7e-4 9.38634,6e-4 q 0,8.59853 0,17.1968 -9.38634,7.3e-4 -18.77336,7.3e-4 0,-8.599 0,-17.19883 z"
         id="path34" />
    </g>
    <g
       style="fill:#848c93;fill-opacity:1;stroke-linejoin:miter"
       id="g40">
      <path
         d="m 188.94162,891.7449 18.77336,6.4e-4 v 17.19686 l -18.77336,6e-4 z"
         id="path38" />
    </g>
    <g
       style="fill:#848c93;fill-opacity:1;stroke-linejoin:miter"
       id="g44">
      <path
         d="m 188.94162,927.26697 9.38702,0.002 9.38634,-0.002 q 0,8.599 0,17.19743 -9.38634,0 -18.77336,7.5e-4 0,-8.59918 0,-17.19818 z"
         id="path42" />
    </g>
    <g
       style="fill:#848c93;fill-opacity:1;stroke-linejoin:miter"
       id="g48">
      <path
         d="m 188.94162,962.7883 18.77336,0.002 v 17.1952 l -18.77336,7e-4 z"
         id="path46" />
    </g>
    <g
       style="fill:#bbdfff;fill-opacity:1;stroke-linejoin:miter"
       id="g52">
      <path
         d="m 225.32793,853.17346 145.48797,-3.6e-4 145.4878,3.6e-4 q -5e-5,11.89194 -5e-5,23.78528 -145.48779,6.6e-4 -290.97572,10e-4 0,-11.89374 0,-23.78638 z"
         id="path50" />
    </g>
    <g
       style="fill:#bbdfff;fill-opacity:1;stroke-linejoin:miter"
       id="g56">
      <path
         d="m 225.32793,889.07654 114.71891,10e-4 114.71909,-7.6e-4 q 0,11.89196 0,23.78536 -114.71909,6.5e-4 -229.438,0.001 0,-11.89406 0,-23.78706 z"
         id="path54" />
    </g>
    <g
       style="fill:#bbdfff;fill-opacity:1;stroke-linejoin:miter"
       id="g60">
      <path
         d="m 225.32793,924.9799 148.326,10e-4 148.32567,-3e-4 q 0,11.8919 0,23.7853 -148.32567,0 -296.65167,0 0,-11.8934 0,-23.7864 z"
         id="path58" />
    </g>
    <g
       style="fill:#bbdfff;fill-opacity:1;stroke-linejoin:miter"
       id="g64">
      <path
         d="m 225.32793,960.88434 191.48805,0.001 v 23.7836 l -191.48807,0.002 z"
         id="path62" />
    </g>
    <g
       style="fill:#bfc9d2;fill-opacity:1;stroke-linejoin:miter"
       id="g68">
      <path
         d="m 204.26323,549.00476 269.41661,9.4e-4 -3.7e-4,21.28544 -269.41624,9.6e-4 z"
         id="path66" />
    </g>
    <g
       style="fill:#848c93;fill-opacity:1;stroke-linejoin:miter"
       id="g72">
      <path
         d="m 188.94164,599.86163 9.38667,6.7e-4 9.38669,4e-4 q 0,8.5987 0,17.19705 -9.38669,3.5e-4 -18.77336,3.5e-4 0,-8.5987 0,-17.19847 z"
         id="path70" />
    </g>
    <g
       style="fill:#848c93;fill-opacity:1;stroke-linejoin:miter"
       id="g76">
      <path
         d="m 188.94164,635.3837 18.77336,7e-4 v 17.1975 l -18.77336,3e-4 z"
         id="path74" />
    </g>
    <g
       style="fill:#848c93;fill-opacity:1;stroke-linejoin:miter"
       id="g80">
      <path
         d="m 188.94164,670.9057 9.38667,10e-4 9.38669,-10e-4 q 0,8.59906 0,17.1976 -9.38669,0 -18.77336,3e-4 0,-8.59884 0,-17.1979 z"
         id="path78" />
    </g>
    <g
       style="fill:#848c93;fill-opacity:1;stroke-linejoin:miter"
       id="g84">
      <path
         d="m 188.94164,706.42706 18.77336,10e-4 -3.4e-4,17.19613 -18.77302,6.4e-4 z"
         id="path82" />
    </g>
    <g
       style="fill:#bbdfff;fill-opacity:1;stroke-linejoin:miter"
       id="g88">
      <path
         d="m 225.3276,596.81226 145.4883,-6.6e-4 145.4878,6e-4 q 0,11.89276 0,23.7851 -145.4878,6.6e-4 -290.9761,10e-4 0,-11.89334 0,-23.78634 z"
         id="path86" />
    </g>
    <g
       style="fill:#bbdfff;fill-opacity:1;stroke-linejoin:miter"
       id="g92">
      <path
         d="m 225.3276,632.7151 114.7191,10e-4 114.71892,-7e-4 q 0,11.89264 0,23.7854 -114.71892,3e-4 -229.43802,10e-4 0,-11.89376 0,-23.787 z"
         id="path90" />
    </g>
    <g
       style="fill:#bbdfff;fill-opacity:1;stroke-linejoin:miter"
       id="g96">
      <path
         d="m 225.3276,668.61847 148.32636,0.002 148.32564,-9.6e-4 q 0,11.89266 0,23.78601 -148.32564,0 -296.652,0 0,-11.89335 0,-23.78668 z"
         id="path94" />
    </g>
    <g
       style="fill:#bbdfff;fill-opacity:1;stroke-linejoin:miter"
       id="g100">
      <path
         d="m 225.3276,704.5229 191.4884,10e-4 v 23.78363 l -191.4884,10e-4 z"
         id="path98" />
    </g>
    <g
       style="fill:#8795a2;fill-opacity:1;stroke-linejoin:miter"
       id="g120">
      <path
         d="m 208.71732,428.0951 c 17.79084,-0.002 24.19329,-17.8144 25.86906,-32.44825 2.06474,-18.02649 -6.45941,-31.59363 -25.86903,-31.59363 -19.4057,0 -27.93377,13.56618 -25.86905,31.59363 1.67772,14.63265 8.07698,32.45023 25.86902,32.44825 z"
         id="path118" />
    </g>
    <g
       style="fill:#8795a2;fill-opacity:1;stroke-linejoin:miter"
       id="g124">
      <path
         d="m 256.84454,470.51328 c -0.19449,-5.67826 -0.85989,-11.38233 -1.8508,-16.9722 -1.2005,-6.77152 -2.72848,-16.69895 -8.64062,-21.11088 -3.41904,-2.5515 -7.84656,-3.38864 -11.7607,-4.92727 -1.90501,-0.74843 -3.6116,-1.49185 -5.21332,-2.33795 -5.40599,5.92816 -12.45512,9.02942 -20.66494,9.02982 -8.20666,0 -15.25501,-3.10126 -20.661,-9.02982 -1.6017,0.84632 -3.30832,1.5899 -5.21335,2.33795 -3.91409,1.53863 -8.34161,2.37555 -11.76027,4.92727 -5.9125,4.41294 -7.4403,14.34037 -8.64065,21.11088 -0.99111,5.58987 -1.65668,11.29394 -1.85097,16.9722 -0.1505,4.39807 2.0211,5.01449 5.70048,6.34232 4.60743,1.6616 9.36419,2.89513 14.15273,3.90627 9.24846,1.95291 18.78154,3.45407 28.27361,3.52121 9.49228,-0.0674 19.02537,-1.5683 28.27363,-3.52121 4.78858,-1.01071 9.54569,-2.24432 14.15271,-3.90627 3.68082,-1.32746 5.85218,-1.94392 5.70169,-6.34232 z"
         id="path122" />
    </g>
    <g
       style="fill:#00acff;fill-opacity:0.996078;stroke-linejoin:miter"
       id="g128">
      <path
         d="m 652.2966,1020.0751 -0.4623,6.8716 q -3.2866,20.7661 -19.2331,33.2166 -16.05695,12.4403 -37.81604,10.0889 -20.76636,-3.2867 -33.21686,-19.2333 -3.98926,-5.1545 -6.57184,-11.2329 l -2.17066,-6.2494 q -1.7888,-6.4501 -1.80883,-13.462 0.54303,-21.5187 14.83197,-35.8076 14.28886,-14.2889 35.80766,-14.83176 21.5187,0.54291 35.80776,14.83191 14.28918,14.28919 14.83224,35.80795"
         id="path126" />
    </g>
    <g
       id="g134">
      <g
         style="fill:#2fff00;fill-opacity:1;stroke-linejoin:miter"
         id="g132">
        <path
           d="m 634.75287,989.0706 -2.59992,1.54476 -0.0357,0.009 0.14645,-1.061 0.002,-0.0322 h -0.002 q -0.1058,0.2074 -0.2499,0.3845 l -0.1072,0.1323 -0.1157,0.1347 -0.1153,0.12806 -0.15864,0.16924 -0.25736,0.2608 -0.11825,0.11257 -0.13625,0.12213 -0.1252,0.1024 -0.1011,0.0733 -0.091,0.055 -0.0551,0.0263 -0.0554,0.0183 -0.0476,0.006 -0.0597,-0.005 -0.0541,-0.015 q -0.0512,-0.0198 -0.092,-0.0607 -0.0419,-0.0437 -0.0666,-0.096 -0.0482,-0.1052 -0.0624,-0.2256 l -0.0106,-0.11683 -0.002,-0.064 -3.6e-4,-0.3017 -0.0138,-0.0364 -2.18017,1.10913 -0.0639,0.003 -0.0603,-0.0118 -0.0522,-0.0208 -0.0442,-0.0298 -0.0354,-0.0381 -0.0271,-0.0454 -0.0198,-0.0536 -0.0123,-0.0619 -0.005,-0.0701 6.5e-4,-0.053 0.009,-0.11683 0.009,-0.0696 0.0474,-0.28692 0.0454,-0.22654 0.0529,-0.2415 0.13853,-0.5795 -0.0154,-0.003 -0.38989,0.40183 -0.42546,0.41244 -0.4577,0.42016 -0.48134,0.4207 -0.31516,0.266 -0.3441,0.2827 -0.3581,0.2868 -0.37223,0.2911 q -0.40491,0.3126 -0.81277,0.6139 l -0.42155,0.3084 -0.46395,0.3333 -0.26615,0.2082 -0.2735,0.23384 -0.32782,0.29976 q -0.17563,0.1655 -0.34903,0.33714 l -0.39004,0.3941 -0.49276,0.51826 -0.5369,0.58495 -0.58374,0.65485 -0.6482,0.7463 -0.67163,0.79 -0.72168,0.8649 -0.75989,0.9255 -0.81736,1.0098 -0.8995,1.126 -0.9619,1.2181 -0.96076,1.23 -0.89794,1.1632 -0.8453,1.1081 -0.8409,1.1169 -0.80356,1.0824 -0.75124,1.0272 -0.5523,0.7663 -0.5684,0.7994 -0.5096,0.7273 -0.7261,1.0559 -0.45815,0.6802 -0.45015,0.6805 -0.4161,0.6418 -0.5987,0.9439 -0.7466,1.1911 -0.64746,1.0455 -0.57974,0.9512 -0.51096,0.8571 -0.35154,0.6077 -0.1154,0.2049 -0.19773,0.3609 -0.10694,0.2039 -0.13293,0.2701 -0.16297,0.3748 -0.0983,0.2042 -0.0558,0.1049 -0.0626,0.1076 -0.0619,0.096 q -0.0296,0.044 -0.0634,0.087 l -0.0416,0.051 -0.0821,0.085 q -0.0393,0.036 -0.084,0.065 l -0.0541,0.03 -0.0536,0.02 -0.053,0.01 h -0.0524 l -0.0501,-0.026 -0.0411,-0.043 -0.0283,-0.043 -0.027,-0.053 -0.0433,-0.1138 -0.0311,-0.108 -0.0405,-0.1834 -0.0285,-0.1658 -0.026,-0.1869 -0.0146,-0.017 -0.45587,1.0531 -0.45156,1.0076 -0.45286,0.9739 -0.43394,0.8976 -0.4216,0.8375 -0.22167,0.4263 -0.22058,0.4145 -0.21935,0.4028 -0.2264,0.4048 -0.21135,0.3689 -0.21035,0.3577 -0.2093,0.3465 -0.2084,0.3354 -0.1914,0.299 -0.1621,0.2445 q -0.0952,0.1416 -0.1945,0.2828 l -0.1749,0.2436 -0.17224,0.2299 -0.18091,0.2297 -0.18715,0.2247 -0.1477,0.1678 -0.16436,0.176 -0.16168,0.1616 -0.16901,0.1564 -0.13385,0.114 -0.17554,0.1358 -0.14666,0.1011 q -0.1438,0.094 -0.2945,0.1658 l -0.15967,0.067 q -0.0526,0.02 -0.10449,0.035 l -0.10874,0.028 -0.0565,0.012 q -0.0563,0.01 -0.11169,0.016 -0.0553,0.01 -0.10987,0.01 h -0.055 q -0.0552,0 -0.11011,-0.014 -0.0548,-0.011 -0.10944,-0.029 -0.0546,-0.018 -0.10894,-0.045 -0.0488,-0.023 -0.094,-0.051 l -0.046,-0.029 q -0.046,-0.031 -0.0918,-0.067 l -0.0914,-0.078 -0.0454,-0.043 -0.11231,-0.1196 -0.10776,-0.1321 -0.10727,-0.1482 -0.12579,-0.1954 -0.11334,-0.1966 -0.11255,-0.215 -0.1272,-0.2671 -0.11415,-0.2615 -0.1133,-0.281 -0.1058,-0.2819 -0.1133,-0.3226 -0.11247,-0.3425 -0.12383,-0.4033 -0.11134,-0.3865 -0.11071,-0.4065 -0.18812,-0.7443 -0.12219,-0.5209 -0.13514,-0.606 q -0.0424,-0.1809 -0.0925,-0.3535 l -0.0888,-0.2814 q -0.0376,-0.1102 -0.0788,-0.2168 l -0.0872,-0.213 q -0.0487,-0.1121 -0.1014,-0.2197 -0.0528,-0.1077 -0.1097,-0.211 l -0.0876,-0.1522 q -0.0899,-0.1496 -0.18895,-0.2892 l -0.14025,-0.1869 -0.1117,-0.1356 q -0.114,-0.1328 -0.23694,-0.2546 -0.12293,-0.1218 -0.25476,-0.2327 l -0.1329,-0.1069 q -0.0899,-0.07 -0.1837,-0.1342 -0.1407,-0.097 -0.2902,-0.1831 -0.14937,-0.087 -0.30806,-0.1595 l -0.21454,-0.072 -0.0501,5e-4 -0.0511,0.01 q -0.0518,0.01 -0.10651,0.021 l -0.11206,0.035 -0.0582,0.023 -0.14819,0.072 -0.0926,0.053 -0.0956,0.061 -0.1489,0.1055 -0.30965,0.2353 -0.0933,0.065 -0.12815,0.081 -0.10695,0.058 -0.0596,0.027 -0.055,0.021 -0.0502,0.015 -0.0455,0.01 h -0.1007 -0.0558 l -1.3841,-0.4999 -1.2569,1.9037 -0.0365,0.046 -0.0442,0.041 q -0.0447,0.039 -0.0916,0.072 -0.14095,0.099 -0.30225,0.1437 -0.0538,0.015 -0.1098,0.024 l -0.0566,0.01 q -0.0557,0.01 -0.1138,0.01 -0.001,0 -0.003,0 h -0.1214 q -0.0592,0 -0.11525,-0.013 -0.0561,-0.01 -0.10905,-0.02 -0.053,-0.012 -0.103,-0.029 l -0.0516,-0.018 q -0.11047,-0.043 -0.20493,-0.1065 -0.0471,-0.032 -0.0904,-0.069 l -0.0422,-0.039 -0.0259,0.036 -0.0618,0.1821 -0.0819,0.2259 q -0.0592,0.1574 -0.12615,0.312 l -0.1069,0.2297 -0.1062,0.1957 q -0.0914,0.1589 -0.2095,0.2894 l -0.0738,0.07 -0.0489,0.037 -0.0528,0.032 -0.0525,0.023 q -0.0523,0.019 -0.10435,0.019 l -0.10045,-0.01 -0.12105,-0.028 -0.14959,-0.05 -0.21366,-0.088 -0.2035,-0.097 -0.25124,-0.1303 -0.30762,-0.1719 -0.004,0.043 0.15376,1.0708 0.167,1.1217 0.16418,1.0559 0.13141,0.8085 0.1319,0.7755 0.12609,0.7029 0.11916,0.6282 0.1088,0.5388 0.0996,0.4607 0.0939,0.404 0.0883,0.3497 0.077,0.2788 0.11526,0.3809 0.1432,0.4522 0.14943,0.4548 q 0.14924,0.4466 0.30427,0.8913 l 0.3561,1.0047 0.4078,1.1181 0.4529,1.2132 0.3823,1.007 0.26265,0.6692 0.31055,0.76 0.3004,0.7046 0.29023,0.653 0.29387,0.6348 0.30855,0.6386 0.29365,0.5823 0.32433,0.6155 0.31507,0.5712 0.3242,0.5609 0.35756,0.5903 0.28964,0.5793 0.0393,0.017 0.3176,-0.1752 0.29755,-0.1567 0.20065,-0.097 0.0876,-0.037 0.0506,-0.018 0.10835,-0.031 0.0578,-0.013 0.11064,-0.018 0.1642,-0.016 h 0.1175 0.06 l 0.60924,0.1143 0.0593,0.015 q 0.16755,0.045 0.30854,0.1415 l 0.0457,0.035 q 0.0436,0.037 0.0795,0.079 0.0379,0.045 0.067,0.095 l 0.0269,0.052 0.0226,0.056 q 0.0192,0.054 0.0301,0.1106 l 0.009,0.058 q 0.008,0.06 0.008,0.1245 l 0.0474,-0.019 1.73594,-0.8494 0.0539,-0.016 0.0566,0.01 q 0.0547,0.017 0.0979,0.058 l 0.035,0.039 0.0319,0.047 q 0.0309,0.053 0.0528,0.1152 l 0.0309,0.1027 0.0131,0.058 0.0116,0.062 0.0173,0.1246 0.0168,0.2267 0.004,0.1932 0.036,-0.028 1.0633,-1.0634 0.0467,-0.03 0.16094,-0.054 0.0533,-0.012 0.4577,0.2288 0.0221,0.018 0.1768,0.1473 0.0447,0.019 0.22852,-0.1802 0.26703,-0.2188 0.21655,-0.1841 0.21851,-0.1923 q 0.30114,-0.27 0.5866,-0.5543 0.12434,-0.1241 0.24421,-0.2494 l 0.27343,-0.2946 q 0.1183,-0.1312 0.23194,-0.2642 l 0.25856,-0.3125 0.2025,-0.2613 0.2108,-0.2919 0.1609,-0.2322 0.2018,-0.3 0.4158,-0.6398 0.4692,-0.7467 0.55126,-0.9002 0.44584,-0.7417 0.5069,-0.8544 1.1334,-1.9402 4.87864,-8.2209 0.19986,-0.3207 0.2563,-0.4011 0.6061,-0.9214 0.4651,-0.69 0.5233,-0.765 0.56574,-0.8164 0.60656,-0.8666 0.70075,-0.9922 0.72492,-1.0186 1.60449,-2.2325 2.01074,-2.768 2.2419,-3.059 2.112,-2.86 1.9067,-2.5584 0.92293,-1.2272 0.79937,-1.0554 0.7814,-1.0233 0.71855,-0.9311 0.62905,-0.8056 0.59184,-0.7466 0.51256,-0.6351 0.46534,-0.5625 4.82896,-5.3324 1.48147,-1.6489 1.26898,-1.42513 1.11609,-1.27002 0.45106,-0.52135 0.4082,-0.47847 0.3077,-0.36773 0.2194,-0.26935 0.18517,-0.23715 0.20303,-0.27384 0.16464,-0.23621 0.1659,-0.25605 0.14416,-0.2441 0.10926,-0.2061 0.104,-0.22294 0.0818,-0.21082 0.0522,-0.16949 0.0156,-0.0617 0.0243,-0.1197 0.0152,-0.1147 0.004,-0.0554 q 0.003,-0.0534 0.002,-0.10974 l -0.003,-0.0575 q -0.004,-0.0581 -0.0136,-0.11805 l -0.0108,-0.0605 -0.0266,-0.1145 -0.0527,-0.1677 -0.045,-0.1155 -0.0275,-0.061 -0.0302,-0.0561 -0.0325,-0.0503 -0.0348,-0.045 q -0.0355,-0.0419 -0.0773,-0.0738 l -0.0478,-0.0318 q -0.0494,-0.0281 -0.1048,-0.042 l -0.0569,-0.0102 -0.10983,-10e-4 -0.10743,0.012 -0.11494,0.0233 -0.1105,0.0313 -0.15236,0.0545 -0.1073,0.0451 -0.15904,0.0756 -0.1433,0.0757 -0.14975,0.0859 -0.15625,0.096 -0.18036,0.1179 -0.38019,0.267 0.60889,-1.4082 z"
           id="path130" />
      </g>
    </g>
    <g
       id="g8609"
       transform="translate(155.56349,185.61553)">
      <text
         xml:space="preserve"
         style="font-style:normal;font-variant:normal;font-weight:bold;font-stretch:normal;font-size:40px;line-height:1.25;font-family:sans-serif;-inkscape-font-specification:'sans-serif Bold';fill:#a0c2e1;fill-opacity:1;stroke:none"
         x="186.65631"
         y="234.24115"
         id="text3939"><tspan
           sodipodi:role="line"
           x="186.65631"
           y="234.24115"
           id="tspan3941">Form</tspan></text>
      <text
         xml:space="preserve"
         style="font-style:normal;font-variant:normal;font-weight:bold;font-stretch:normal;font-size:40px;line-height:1.25;font-family:sans-serif;-inkscape-font-specification:'sans-serif Bold';fill:#8cb6db;fill-opacity:1;stroke:none"
         x="133.62329"
         y="266.06097"
         id="text4211"><tspan
           sodipodi:role="line"
           id="tspan4209"
           x="133.62329"
           y="266.06097">penelitihan</tspan></text>
    </g>
  </g>
</svg>
