<?xml version="1.0" encoding="UTF-8" standalone="no"?>
<!-- Generator: Adobe Illustrator 18.1.1, SVG Export Plug-In . SVG Version: 6.00 Build 0)  -->

<svg
   version="1.1"
   id="Layer_1"
   x="0px"
   y="0px"
   viewBox="0 0 3000 3000"
   enable-background="new 0 0 3000 3000"
   xml:space="preserve"
   sodipodi:docname="printer.svg"
   inkscape:version="1.1 (c68e22c387, 2021-05-23)"
   xmlns:inkscape="http://www.inkscape.org/namespaces/inkscape"
   xmlns:sodipodi="http://sodipodi.sourceforge.net/DTD/sodipodi-0.dtd"
   xmlns="http://www.w3.org/2000/svg"
   xmlns:svg="http://www.w3.org/2000/svg"><defs
   id="defs67" /><sodipodi:namedview
   id="namedview65"
   pagecolor="#ffffff"
   bordercolor="#666666"
   borderopacity="1.0"
   inkscape:pageshadow="2"
   inkscape:pageopacity="0.0"
   inkscape:pagecheckerboard="0"
   showgrid="false"
   inkscape:zoom="0.086666665"
   inkscape:cx="1009.6154"
   inkscape:cy="1782.6923"
   inkscape:window-width="1366"
   inkscape:window-height="705"
   inkscape:window-x="-8"
   inkscape:window-y="-8"
   inkscape:window-maximized="1"
   inkscape:current-layer="Layer_1" />
<g
   id="g62"
   transform="matrix(1.1503154,0,0,1.1503154,-208.16548,-312.01163)"
   inkscape:export-filename="E:\web\htdocs\amaw.com\kumb\assets\img\printer.png"
   inkscape:export-xdpi="96"
   inkscape:export-ydpi="96">
	<path
   fill="#3a3766"
   d="m 2782.9,1487.8 v 522.8 c 0,39.1 -31.7,70.7 -70.7,70.7 H 287.9 c -39.1,0 -70.7,-31.7 -70.7,-70.7 v -522.8 c 0,-14.4 0.9,-28.5 2.8,-42.4 20.8,-159 156.8,-281.9 321.5,-281.9 h 1917.2 c 179,0 324.2,145.2 324.2,324.3 z"
   id="path2" />
	<path
   fill="#333059"
   d="m 2782.9,1487.8 v 104 H 217.1 v -104 c 0,-14.4 0.9,-28.5 2.8,-42.4 20.8,-159 156.8,-281.9 321.5,-281.9 h 1917.2 c 179.1,0 324.3,145.2 324.3,324.3 z"
   id="path4" />
	<g
   id="g60">
		<path
   fill="#262442"
   d="M 2411.4,2081.3 H 588.6 V 1900 c 0,-48.9 39.7,-88.6 88.6,-88.6 h 1645.6 c 48.9,0 88.6,39.7 88.6,88.6 z"
   id="path6" />
		<polygon
   fill="#3a3766"
   points="763.7,1946.4 2236.3,1946.4 2032.3,2595.3 967.7,2595.3 "
   id="polygon8" />
		<polygon
   fill="#3a3766"
   points="763.7,1163.5 2236.3,1163.5 2032.3,404.7 967.7,404.7 "
   id="polygon10" />
		<g
   opacity="0.2"
   id="g26">
			<path
   fill="#ffffff"
   d="M 2421,1281.9 H 786.3 c -4.8,0 -8.7,-3.9 -8.7,-8.7 V 1255 c 0,-4.8 3.9,-8.7 8.7,-8.7 H 2421 c 4.8,0 8.7,3.9 8.7,8.7 v 18.2 c 0,4.8 -3.9,8.7 -8.7,8.7 z"
   id="path12" />
			<circle
   fill="#ffffff"
   cx="710.70001"
   cy="1264.1"
   r="19.4"
   id="circle14" />
			<circle
   fill="#ffffff"
   cx="649.5"
   cy="1264.1"
   r="19.4"
   id="circle16" />
			<g
   id="g20">
				<path
   fill="#ffffff"
   d="m 313,1476.7 c -0.6,0 -1.2,0 -1.8,-0.1 -9.5,-1 -16.4,-9.5 -15.5,-19 0.2,-2 5.3,-49.8 33.6,-99.4 26.6,-46.6 79,-103.6 178.3,-110.2 9.6,-0.6 17.8,6.6 18.5,16.1 0.6,9.6 -6.6,17.8 -16.1,18.5 -66.9,4.5 -117.3,35.3 -149.9,91.8 -25,43.4 -29.8,86.4 -29.8,86.8 -1,8.9 -8.5,15.5 -17.3,15.5 z"
   id="path18" />
			</g>
			<g
   id="g24">
				<path
   fill="#ffffff"
   d="m 2687,1476.7 c 0.6,0 1.2,0 1.8,-0.1 9.5,-1 16.4,-9.5 15.5,-19 -0.2,-2 -5.3,-49.8 -33.6,-99.4 -26.6,-46.6 -79,-103.6 -178.3,-110.2 -9.6,-0.6 -17.8,6.6 -18.5,16.1 -0.6,9.6 6.6,17.8 16.1,18.5 66.9,4.5 117.3,35.3 149.9,91.8 25,43.4 29.8,86.4 29.8,86.8 1,8.9 8.5,15.5 17.3,15.5 z"
   id="path22" />
			</g>
		</g>
		<circle
   fill="#ff4f56"
   cx="531.20001"
   cy="1449"
   r="39.700001"
   id="circle28" />
		<circle
   fill="#00aeef"
   cx="668.90002"
   cy="1449"
   r="23"
   id="circle30" />
		<circle
   fill="#fff200"
   cx="733.70001"
   cy="1449"
   r="23"
   id="circle32" />
		<circle
   fill="#00aeef"
   cx="798.59998"
   cy="1449"
   r="23"
   id="circle34" />
		<rect
   x="988.90002"
   y="674.29999"
   fill="#f1f2f2"
   width="1022.1"
   height="492.5"
   id="rect36" />
		<rect
   x="988.90002"
   y="1946.4"
   fill="#f1f2f2"
   width="1022.1"
   height="492.5"
   id="rect38" />
		<rect
   x="1092.9"
   y="2003.8"
   fill="#bcbec0"
   width="814.09998"
   height="12.2"
   id="rect40" />
		<rect
   x="1092.9"
   y="2047.3"
   fill="#bcbec0"
   width="814.09998"
   height="12.2"
   id="rect42" />
		<rect
   x="1092.9"
   y="2090.8"
   fill="#bcbec0"
   width="814.09998"
   height="12.2"
   id="rect44" />
		<rect
   x="1092.9"
   y="2134.3"
   fill="#bcbec0"
   width="814.09998"
   height="12.2"
   id="rect46" />
		<rect
   x="1092.9"
   y="2177.8"
   fill="#bcbec0"
   width="814.09998"
   height="12.2"
   id="rect48" />
		<rect
   x="1092.9"
   y="2221.3999"
   fill="#bcbec0"
   width="814.09998"
   height="12.2"
   id="rect50" />
		<rect
   x="1092.9"
   y="2264.8999"
   fill="#bcbec0"
   width="814.09998"
   height="12.2"
   id="rect52" />
		<rect
   x="1092.9"
   y="2308.3999"
   fill="#bcbec0"
   width="814.09998"
   height="12.2"
   id="rect54" />
		<rect
   x="1092.9"
   y="2351.8999"
   fill="#bcbec0"
   width="814.09998"
   height="12.2"
   id="rect56" />
		<path
   fill="#2e2c52"
   d="M 2152.2,1751.1 H 847.8 c -13.3,0 -24,-10.8 -24,-24 v -50 c 0,-13.3 10.8,-24 24,-24 h 1304.4 c 13.3,0 24,10.8 24,24 v 50 c 0.1,13.2 -10.7,24 -24,24 z"
   id="path58" />
	</g>
</g>
</svg>
