<?xml version="1.0" encoding="utf-8"?>
<!-- Generator: Adobe Illustrator 22.1.0, SVG Export Plug-In . SVG Version: 6.00 Build 0)  -->
<svg version="1.1" id="Layer_1" xmlns="http://www.w3.org/2000/svg" xmlns:xlink="http://www.w3.org/1999/xlink" x="0px" y="0px"
	 viewBox="0 0 5000 5000" style="enable-background:new 0 0 5000 5000;" xml:space="preserve">
<style type="text/css">
	.st0{fill-rule:evenodd;clip-rule:evenodd;fill:#00F7EF;}
	.st1{fill-rule:evenodd;clip-rule:evenodd;fill:#FFFFFF;}
	.st2{fill-rule:evenodd;clip-rule:evenodd;fill:#FF004F;}
</style>
<g>
	<path id="Blue" class="st0" d="M1287.5,3910.4c-760.5-660-268.7-2129.3,900.6-1944.5V2102C1200.6,2056.1,765.9,3234,1287.5,3910.4z
		 M3420.3,1361.4c120.1,96,285.8,166.8,514.2,180.3v133.3C3681.8,1628.4,3521.6,1502.8,3420.3,1361.4z M3103.2,659.5
		c-0.2,49.2,6.2,102.1,14.3,150.3h-466.1v2320.8c0,107-11,202.3-32.9,285.8c-189.8,418.4-727.3,363.7-875.8,76.6
		c221.1,138.4,584.7,101.7,733.9-226.9c21.8-83.4,32.7-178.9,32.7-285.8V659.5H3103.2z"/>
	<path id="Black" class="st1" d="M3245.3,809.9v3c0.2,53.7,15.9,830.7,831.3,879.2c0,722.9,0.4,0,0.4,600.4
		c-61.3,3.6-536.7-30.7-832.6-294.6l-0.9,1168.7c7.3,529.2-287.3,1048.2-838.8,1152.8c-154.5,29.3-293.7,32.6-527.2-18.5
		C531.9,3898.4,979,1902.7,2330,2116.3c0,644.3,0.4-0.2,0.4,644.3c-558.1-82.1-744.8,382.2-596.5,714.6
		c135,302.7,690.7,368.3,884.5-58.7c21.9-83.6,32.9-178.8,32.9-285.8V809.9H3245.3z"/>
	<path id="Red" class="st2" d="M2188.1,2102c46.1,2,93.4,6.6,141.9,14.2c0,644.3,0.4-0.2,0.4,644.3
		c-558.1-82.1-744.8,382.2-596.5,714.6c2.7,6,5.7,12.1,8.8,17.9c-66.4-41.5-119.8-98.6-150.8-168.2
		c-148.1-332.5,38.4-796.8,596.5-714.6C2188.3,2019.7,2188.1,2511.1,2188.1,2102z M3934.5,1675.1c44.4,8.2,91.8,14,142.1,17
		c0,722.9,0.4,0,0.4,600.4c-61.3,3.6-536.7-30.7-832.6-294.6l-0.9,1168.7c7.3,529.2-287.3,1048.2-838.8,1152.8
		c-154.5,29.3-293.7,32.6-527.2-18.5c-262.9-78.6-457.1-218.3-589.9-390.4c118.3,102.8,266.8,186,448,240.3
		c233.3,50.8,372.5,47.5,527,18.3c551.5-104.6,846.1-623.6,839-1152.6l0.7-1168.9c295.9,263.9,771.3,298.4,832.8,294.6
		C3935.1,1584.5,3934.5,2168,3934.5,1675.1z M3245.3,809.9v3c0,31.6,5.7,312.2,175,548.6c-204.1-163.3-276.9-399.2-302.8-551.5
		H3245.3z"/>
</g>
</svg>
